<svg width="237" height="41" viewBox="0 0 237 41" fill="none" xmlns="http://www.w3.org/2000/svg">
<rect width="236.001" height="40.0014" rx="8" fill="url(#paint0_linear_1_56)"/>
<g filter="url(#filter0_d_1_56)">
<path fill-rule="evenodd" clip-rule="evenodd" d="M22.525 8.05878C22.2137 8.15815 21.9746 8.33804 21.7036 8.67669C21.6274 8.77187 21.4961 8.80542 21.3254 8.77331C21.1229 8.73521 20.3545 8.68549 18.3431 8.58043C17.7554 8.54969 17.6361 8.56643 17.5307 8.69408C17.2786 8.9991 17.3465 9.98185 17.6344 10.1954C17.7164 10.2563 18.1632 10.2654 18.6029 10.2151C18.8398 10.1879 19.0758 10.1638 19.6177 10.1112C19.7538 10.098 19.9765 10.076 20.1127 10.0625C20.2488 10.0489 20.5327 10.0207 20.7437 9.99989C20.9547 9.97911 21.2646 9.93357 21.4322 9.89865L21.7371 9.83522L21.8282 9.89634C22.0944 10.0749 22.1677 10.2042 22.1298 10.4279C22.0584 10.8483 22.0511 11.0797 22.0613 12.5637C22.0741 14.396 22.1169 14.2339 21.6099 14.2736C21.293 14.2985 21.1697 14.3886 21.1141 14.6362C21.0875 14.7548 21.0936 15.8853 21.1226 16.1938C21.1407 16.3875 20.9886 16.4977 20.6404 16.543C20.2981 16.5875 20.2155 16.7834 20.2888 17.3769C20.3047 17.5059 20.2262 17.6101 20.024 17.7285C19.8403 17.836 19.8017 18.0907 19.946 18.2429C20.1033 18.4087 20.1111 18.4913 19.9865 18.6717C19.857 18.8594 19.8541 18.8888 19.8529 20.0371C19.8517 21.1908 19.8369 21.3794 19.7353 21.5305C19.5884 21.7492 18.8679 22.4134 18.6979 22.4867C18.6462 22.509 18.2073 22.5211 17.0315 22.5328C16.1535 22.5414 15.4046 22.5569 15.3673 22.5673C15.2163 22.6088 15.0768 22.5606 14.9415 22.42C14.753 22.2243 14.7743 22.227 13.48 22.2405C12.2082 22.2537 12.2218 22.2555 12.1913 22.0741C12.157 21.8696 12.1369 21.8036 12.054 21.6237C11.8965 21.2814 11.7576 21.2144 11.3187 21.2694C11.039 21.3045 10.9758 21.3806 10.9073 21.7654C10.8213 22.2477 10.7319 22.3486 10.4759 22.2521C10.3073 22.1885 10.2818 22.1873 9.61917 22.21C9.57831 22.2114 9.50395 22.2052 9.4539 22.1964C9.4006 22.1869 9.32357 22.1933 9.26824 22.212C9.21623 22.2295 9.09016 22.2463 8.98803 22.2495C8.53106 22.2634 8.4549 22.2869 8.35046 22.4459C8.12009 22.7965 7.92539 24.7569 8.02816 25.6913C8.14526 26.7564 8.29252 27.2612 8.51276 27.3524C8.81517 27.4776 10.1219 27.5354 10.4647 27.4386L10.642 27.3886L10.7215 27.4451C10.8252 27.5188 10.8812 27.6505 10.9307 27.9382C10.9901 28.2831 11.0516 28.3602 11.3052 28.4079C11.4784 28.4405 11.7129 28.4276 11.8183 28.3798C12.0408 28.2786 12.1651 27.5862 12.0304 27.1981C11.9534 26.976 12.0109 26.9231 12.1122 27.123C12.2544 27.4038 12.4004 27.4319 13.7151 27.432C14.905 27.432 14.8194 27.4527 14.9861 27.125C15.1202 26.8616 15.181 26.813 15.3688 26.8198C15.4462 26.8226 16.0662 26.8344 16.7469 26.8461C18.1048 26.8694 17.9757 26.8541 18.405 27.0431C19.5291 27.5382 20.76 27.817 22.3029 27.9262C23.1512 27.9863 24.3181 27.9605 25.0501 27.8656C26.366 27.695 27.2336 27.4758 28.1313 27.0872C28.7855 26.8039 29.0754 26.954 29.2098 27.6457C29.3149 28.1865 29.2896 28.2662 28.9727 28.3947C28.526 28.5758 28.2492 28.7623 28.1834 28.9264C28.1358 29.0451 28.158 29.1756 28.2861 29.5308C28.3204 29.6258 28.3518 29.7647 28.3559 29.8394C28.3674 30.0513 28.3893 30.1384 28.4644 30.2724C28.5028 30.3409 28.5413 30.452 28.5501 30.5194C28.5705 30.6765 28.6304 30.8622 28.701 30.9875C28.7348 31.0475 28.7628 31.1509 28.7723 31.2506C28.8167 31.7156 29.018 31.8511 29.7771 31.9267C29.8656 31.9355 29.9643 31.9468 29.9966 31.9517C31.539 32.1876 33.6698 31.5435 35.2018 30.3782C35.9163 29.8347 36.0961 29.5771 35.9561 29.2971C35.9331 29.2512 35.9148 29.1563 35.9148 29.0835C35.9148 28.9407 35.8429 28.7201 35.7637 28.6195C35.7362 28.5847 35.7091 28.507 35.7035 28.4471C35.6926 28.3318 35.6156 28.1144 35.5549 28.028C35.535 27.9998 35.5188 27.9404 35.5188 27.8961C35.5188 27.8045 35.4584 27.6367 35.3899 27.5378C35.3643 27.5009 35.3274 27.4171 35.3079 27.3515C35.2066 27.0112 34.6302 26.8055 34.0462 26.9012C33.546 26.9832 33.5119 26.965 33.3673 26.5409C32.9071 25.1914 32.2807 24.1951 31.556 23.6604C31.2809 23.4574 31.178 23.4105 30.1483 23.0186C29.1384 22.6342 28.883 22.5268 28.4204 22.2918C28.1438 22.1514 27.8375 21.985 27.7398 21.9221C26.2447 20.9596 26.4059 21.2117 26.3515 19.7522C26.3148 18.7706 26.307 18.7318 26.1147 18.5776C25.9585 18.4524 25.9357 18.3945 25.9791 18.232C26.0536 17.9527 26.0146 17.8294 25.8069 17.6882C25.6447 17.5778 25.6223 17.5307 25.6475 17.3522C25.7325 16.7501 25.6355 16.534 25.2621 16.4938C25.0363 16.4694 24.9415 16.4392 24.8771 16.3707L24.8188 16.3087L24.8168 15.426C24.8143 14.2537 24.8223 14.2714 24.2828 14.245C23.8972 14.2261 23.8083 14.2043 23.7278 14.1087L23.6641 14.0333L23.6639 12.3747C23.6638 11.411 23.6531 10.6241 23.6385 10.4967C23.6089 10.2392 23.6127 10.2304 23.8422 10.0151C24.0176 9.85052 24.1286 9.7837 24.1962 9.80202C24.5944 9.91026 24.53 9.90514 26.7082 10.0008C28.3799 10.0743 28.3656 10.0759 28.5023 9.80275C28.6813 9.44512 28.5605 8.4776 28.3244 8.37795C28.2435 8.34389 27.9241 8.34526 27.6239 8.38105C27.4021 8.40753 27.3435 8.41403 26.2627 8.53273C24.9202 8.68015 24.8941 8.68333 24.5639 8.74084C24.2408 8.79705 24.2217 8.79077 24.0363 8.56715C23.6401 8.08931 23.0505 7.89094 22.525 8.05878Z" fill="url(#paint1_linear_1_56)"/>
</g>
<g filter="url(#filter1_d_1_56)">
<path d="M44.4041 26.5007H42.424L46.8732 14.1371H49.0284L53.4776 26.5007H51.4975L48.0021 16.3828H47.9055L44.4041 26.5007ZM44.7361 21.6591H51.1594V23.2287H44.7361V21.6591ZM61.8886 17.228L58.526 26.5007H56.5942L53.2256 17.228H55.1634L57.5118 24.3636H57.6084L59.9507 17.228H61.8886ZM66.0178 26.706C65.4302 26.706 64.899 26.5973 64.4241 26.38C63.9492 26.1586 63.5729 25.8386 63.2952 25.4201C63.0215 25.0015 62.8846 24.4884 62.8846 23.8807C62.8846 23.3575 62.9853 22.9268 63.1865 22.5888C63.3877 22.2507 63.6594 21.9831 64.0015 21.7859C64.3436 21.5886 64.7259 21.4397 65.1485 21.3391C65.5711 21.2385 66.0017 21.162 66.4404 21.1097C66.9958 21.0453 67.4466 20.993 67.7927 20.9528C68.1388 20.9085 68.3903 20.8381 68.5473 20.7415C68.7042 20.6449 68.7827 20.4879 68.7827 20.2706V20.2283C68.7827 19.7011 68.6338 19.2926 68.336 19.0028C68.0422 18.7131 67.6035 18.5682 67.0199 18.5682C66.4122 18.5682 65.9333 18.703 65.5832 18.9726C65.237 19.2383 64.9976 19.5341 64.8648 19.8601L63.1684 19.4737C63.3696 18.9103 63.6634 18.4555 64.0498 18.1094C64.4402 17.7592 64.8889 17.5057 65.396 17.3487C65.9031 17.1877 66.4364 17.1072 66.9958 17.1072C67.3661 17.1072 67.7585 17.1515 68.173 17.24C68.5916 17.3246 68.9819 17.4815 69.3442 17.7109C69.7104 17.9403 70.0102 18.2683 70.2437 18.6949C70.4771 19.1175 70.5938 19.6669 70.5938 20.343V26.5007H68.831V25.2329H68.7586C68.6419 25.4664 68.4668 25.6958 68.2334 25.9212C67.9999 26.1465 67.7001 26.3337 67.3339 26.4826C66.9676 26.6315 66.5289 26.706 66.0178 26.706ZM66.4102 25.2571C66.9093 25.2571 67.3359 25.1585 67.69 24.9613C68.0482 24.7641 68.3199 24.5065 68.505 24.1886C68.6942 23.8666 68.7888 23.5225 68.7888 23.1562V21.9609C68.7244 22.0253 68.5996 22.0857 68.4145 22.142C68.2334 22.1944 68.0261 22.2406 67.7927 22.2809C67.5592 22.3171 67.3319 22.3513 67.1105 22.3835C66.8891 22.4117 66.704 22.4358 66.5551 22.456C66.205 22.5002 65.885 22.5747 65.5952 22.6793C65.3095 22.784 65.0801 22.9349 64.907 23.1321C64.738 23.3253 64.6535 23.5828 64.6535 23.9048C64.6535 24.3515 64.8185 24.6896 65.1485 24.919C65.4785 25.1444 65.8991 25.2571 66.4102 25.2571ZM72.998 26.5007V17.228H74.8031V26.5007H72.998ZM73.9096 15.7972C73.5957 15.7972 73.326 15.6926 73.1006 15.4833C72.8793 15.27 72.7686 15.0164 72.7686 14.7226C72.7686 14.4248 72.8793 14.1713 73.1006 13.962C73.326 13.7487 73.5957 13.642 73.9096 13.642C74.2235 13.642 74.4911 13.7487 74.7125 13.962C74.9379 14.1713 75.0506 14.4248 75.0506 14.7226C75.0506 15.0164 74.9379 15.27 74.7125 15.4833C74.4911 15.6926 74.2235 15.7972 73.9096 15.7972ZM79.0365 14.1371V26.5007H77.2314V14.1371H79.0365ZM84.1633 26.706C83.5757 26.706 83.0445 26.5973 82.5696 26.38C82.0947 26.1586 81.7184 25.8386 81.4407 25.4201C81.167 25.0015 81.0301 24.4884 81.0301 23.8807C81.0301 23.3575 81.1308 22.9268 81.332 22.5888C81.5332 22.2507 81.8049 21.9831 82.147 21.7859C82.4891 21.5886 82.8714 21.4397 83.294 21.3391C83.7166 21.2385 84.1472 21.162 84.5859 21.1097C85.1413 21.0453 85.5921 20.993 85.9382 20.9528C86.2843 20.9085 86.5358 20.8381 86.6928 20.7415C86.8497 20.6449 86.9282 20.4879 86.9282 20.2706V20.2283C86.9282 19.7011 86.7793 19.2926 86.4815 19.0028C86.1877 18.7131 85.749 18.5682 85.1654 18.5682C84.5577 18.5682 84.0788 18.703 83.7287 18.9726C83.3825 19.2383 83.1431 19.5341 83.0103 19.8601L81.3139 19.4737C81.5151 18.9103 81.8089 18.4555 82.1953 18.1094C82.5857 17.7592 83.0344 17.5057 83.5415 17.3487C84.0486 17.1877 84.5819 17.1072 85.1413 17.1072C85.5116 17.1072 85.904 17.1515 86.3185 17.24C86.7371 17.3246 87.1274 17.4815 87.4897 17.7109C87.8559 17.9403 88.1557 18.2683 88.3892 18.6949C88.6226 19.1175 88.7393 19.6669 88.7393 20.343V26.5007H86.9765V25.2329H86.9041C86.7874 25.4664 86.6123 25.6958 86.3789 25.9212C86.1454 26.1465 85.8456 26.3337 85.4794 26.4826C85.1131 26.6315 84.6744 26.706 84.1633 26.706ZM84.5557 25.2571C85.0548 25.2571 85.4814 25.1585 85.8355 24.9613C86.1937 24.7641 86.4654 24.5065 86.6505 24.1886C86.8397 23.8666 86.9343 23.5225 86.9343 23.1562V21.9609C86.8699 22.0253 86.7451 22.0857 86.56 22.142C86.3789 22.1944 86.1716 22.2406 85.9382 22.2809C85.7047 22.3171 85.4774 22.3513 85.256 22.3835C85.0346 22.4117 84.8495 22.4358 84.7006 22.456C84.3505 22.5002 84.0305 22.5747 83.7407 22.6793C83.455 22.784 83.2256 22.9349 83.0525 23.1321C82.8835 23.3253 82.799 23.5828 82.799 23.9048C82.799 24.3515 82.964 24.6896 83.294 24.919C83.624 25.1444 84.0446 25.2571 84.5557 25.2571ZM91.2884 26.5007V14.1371H93.0934V18.7312H93.2021C93.3067 18.538 93.4577 18.3146 93.6549 18.0611C93.8521 17.8075 94.1258 17.5862 94.4759 17.397C94.826 17.2038 95.2889 17.1072 95.8644 17.1072C96.613 17.1072 97.2811 17.2964 97.8687 17.6747C98.4563 18.053 98.9171 18.5984 99.2511 19.3107C99.5892 20.0231 99.7582 20.8803 99.7582 21.8824C99.7582 22.8846 99.5912 23.7438 99.2571 24.4602C98.9231 25.1726 98.4643 25.7219 97.8807 26.1083C97.2972 26.4906 96.6311 26.6818 95.8825 26.6818C95.3191 26.6818 94.8582 26.5872 94.5 26.3981C94.1459 26.2089 93.8682 25.9876 93.667 25.734C93.4657 25.4805 93.3108 25.2551 93.2021 25.0579H93.0512V26.5007H91.2884ZM93.0572 21.8643C93.0572 22.5163 93.1518 23.0878 93.341 23.5788C93.5301 24.0698 93.8038 24.4542 94.162 24.7319C94.5202 25.0056 94.9589 25.1424 95.478 25.1424C96.0173 25.1424 96.4681 24.9995 96.8303 24.7138C97.1925 24.424 97.4662 24.0316 97.6513 23.5366C97.8405 23.0415 97.9351 22.4841 97.9351 21.8643C97.9351 21.2526 97.8425 20.7032 97.6574 20.2163C97.4763 19.7293 97.2026 19.3449 96.8363 19.0632C96.4741 18.7815 96.0214 18.6406 95.478 18.6406C94.9548 18.6406 94.5121 18.7754 94.1499 19.0451C93.7917 19.3147 93.5201 19.691 93.3349 20.174C93.1498 20.6569 93.0572 21.2204 93.0572 21.8643ZM103.59 14.1371V26.5007H101.785V14.1371H103.59ZM110.015 26.6878C109.101 26.6878 108.315 26.4926 107.655 26.1023C106.999 25.7078 106.491 25.1545 106.133 24.4421C105.779 23.7257 105.602 22.8866 105.602 21.9247C105.602 20.9749 105.779 20.1378 106.133 19.4133C106.491 18.6889 106.99 18.1234 107.63 17.717C108.274 17.3105 109.027 17.1072 109.888 17.1072C110.411 17.1072 110.918 17.1938 111.409 17.3668C111.9 17.5399 112.341 17.8115 112.732 18.1818C113.122 18.5521 113.43 19.033 113.655 19.6246C113.881 20.2122 113.993 20.9266 113.993 21.7677V22.4077H106.622V21.0554H112.224C112.224 20.5805 112.128 20.1599 111.935 19.7937C111.742 19.4234 111.47 19.1316 111.12 18.9183C110.774 18.705 110.367 18.5984 109.9 18.5984C109.393 18.5984 108.95 18.7231 108.572 18.9726C108.198 19.2181 107.908 19.5401 107.703 19.9386C107.502 20.333 107.401 20.7616 107.401 21.2244V22.2809C107.401 22.9007 107.51 23.4279 107.727 23.8626C107.948 24.2972 108.256 24.6292 108.651 24.8587C109.045 25.084 109.506 25.1967 110.033 25.1967C110.375 25.1967 110.687 25.1484 110.969 25.0518C111.251 24.9512 111.494 24.8023 111.699 24.6051C111.905 24.4079 112.061 24.1644 112.17 23.8746L113.879 24.1825C113.742 24.6856 113.496 25.1263 113.142 25.5046C112.792 25.8789 112.351 26.1707 111.82 26.38C111.293 26.5852 110.691 26.6878 110.015 26.6878ZM124.401 26.6878C123.532 26.6878 122.773 26.4886 122.125 26.0902C121.477 25.6917 120.974 25.1343 120.616 24.418C120.258 23.7016 120.079 22.8645 120.079 21.9066C120.079 20.9447 120.258 20.1036 120.616 19.3832C120.974 18.6627 121.477 18.1033 122.125 17.7049C122.773 17.3065 123.532 17.1072 124.401 17.1072C125.27 17.1072 126.029 17.3065 126.677 17.7049C127.325 18.1033 127.828 18.6627 128.186 19.3832C128.544 20.1036 128.723 20.9447 128.723 21.9066C128.723 22.8645 128.544 23.7016 128.186 24.418C127.828 25.1343 127.325 25.6917 126.677 26.0902C126.029 26.4886 125.27 26.6878 124.401 26.6878ZM124.407 25.1726C124.97 25.1726 125.437 25.0237 125.808 24.7258C126.178 24.428 126.452 24.0316 126.629 23.5366C126.81 23.0415 126.9 22.4962 126.9 21.9006C126.9 21.3089 126.81 20.7656 126.629 20.2706C126.452 19.7715 126.178 19.3711 125.808 19.0692C125.437 18.7674 124.97 18.6165 124.407 18.6165C123.84 18.6165 123.369 18.7674 122.994 19.0692C122.624 19.3711 122.348 19.7715 122.167 20.2706C121.99 20.7656 121.902 21.3089 121.902 21.9006C121.902 22.4962 121.99 23.0415 122.167 23.5366C122.348 24.0316 122.624 24.428 122.994 24.7258C123.369 25.0237 123.84 25.1726 124.407 25.1726ZM132.543 20.995V26.5007H130.738V17.228H132.471V18.7372H132.586C132.799 18.2462 133.133 17.8518 133.588 17.554C134.046 17.2561 134.624 17.1072 135.32 17.1072C135.952 17.1072 136.506 17.24 136.98 17.5057C137.455 17.7673 137.824 18.1577 138.085 18.6768C138.347 19.196 138.478 19.8379 138.478 20.6026V26.5007H136.673V20.8199C136.673 20.1478 136.497 19.6226 136.147 19.2443C135.797 18.862 135.316 18.6708 134.704 18.6708C134.286 18.6708 133.914 18.7614 133.588 18.9425C133.266 19.1236 133.01 19.3892 132.821 19.7393C132.636 20.0855 132.543 20.504 132.543 20.995Z" fill="#E8E8E8"/>
<path d="M151.62 17.8437C151.58 17.401 151.401 17.0569 151.083 16.8114C150.769 16.5619 150.32 16.4371 149.736 16.4371C149.35 16.4371 149.028 16.4874 148.771 16.5881C148.513 16.6887 148.32 16.8275 148.191 17.0046C148.062 17.1777 147.996 17.3769 147.992 17.6023C147.984 17.7874 148.02 17.9504 148.1 18.0913C148.185 18.2321 148.306 18.3569 148.463 18.4655C148.624 18.5702 148.817 18.6627 149.042 18.7432C149.268 18.8237 149.521 18.8942 149.803 18.9545L150.865 19.196C151.477 19.3288 152.016 19.5059 152.483 19.7273C152.954 19.9486 153.349 20.2122 153.666 20.5181C153.988 20.824 154.232 21.1761 154.397 21.5746C154.562 21.973 154.646 22.4197 154.651 22.9148C154.646 23.6955 154.449 24.3656 154.059 24.9251C153.669 25.4845 153.107 25.9131 152.375 26.2109C151.646 26.5087 150.767 26.6577 149.736 26.6577C148.702 26.6577 147.801 26.5027 147.032 26.1928C146.263 25.8829 145.666 25.412 145.239 24.7802C144.812 24.1483 144.593 23.3494 144.581 22.3835H147.442C147.467 22.7819 147.573 23.114 147.762 23.3796C147.952 23.6452 148.211 23.8465 148.541 23.9833C148.875 24.1201 149.262 24.1886 149.7 24.1886C150.103 24.1886 150.445 24.1342 150.727 24.0256C151.012 23.9169 151.232 23.766 151.385 23.5728C151.537 23.3796 151.616 23.1582 151.62 22.9087C151.616 22.6753 151.544 22.4761 151.403 22.3111C151.262 22.142 151.044 21.9971 150.751 21.8764C150.461 21.7516 150.091 21.6369 149.64 21.5323L148.348 21.2305C147.277 20.985 146.434 20.5885 145.818 20.0412C145.203 19.4898 144.897 18.7453 144.901 17.8075C144.897 17.0428 145.102 16.3727 145.517 15.7972C145.931 15.2217 146.505 14.773 147.237 14.451C147.97 14.129 148.805 13.968 149.742 13.968C150.7 13.968 151.531 14.131 152.236 14.457C152.944 14.779 153.493 15.2318 153.884 15.8153C154.274 16.3989 154.473 17.075 154.481 17.8437H151.62ZM156.16 29.978V17.228H159.082V18.8157H159.172C159.293 18.534 159.464 18.2623 159.685 18.0007C159.911 17.7391 160.196 17.5258 160.543 17.3608C160.893 17.1918 161.311 17.1072 161.798 17.1072C162.442 17.1072 163.044 17.2763 163.603 17.6143C164.167 17.9524 164.622 18.4736 164.968 19.1779C165.314 19.8822 165.487 20.7797 165.487 21.8704C165.487 22.9208 165.32 23.8002 164.986 24.5085C164.656 25.2168 164.209 25.7481 163.646 26.1023C163.086 26.4564 162.464 26.6335 161.78 26.6335C161.313 26.6335 160.909 26.557 160.567 26.4041C160.225 26.2512 159.937 26.0499 159.703 25.8004C159.474 25.5509 159.297 25.2832 159.172 24.9975H159.112V29.978H156.16ZM159.051 21.8643C159.051 22.3634 159.118 22.798 159.251 23.1683C159.387 23.5386 159.583 23.8263 159.836 24.0316C160.094 24.2328 160.402 24.3334 160.76 24.3334C161.122 24.3334 161.43 24.2328 161.684 24.0316C161.937 23.8263 162.128 23.5386 162.257 23.1683C162.39 22.798 162.456 22.3634 162.456 21.8643C162.456 21.3653 162.39 20.9326 162.257 20.5664C162.128 20.2002 161.937 19.9164 161.684 19.7152C161.434 19.514 161.126 19.4133 160.76 19.4133C160.398 19.4133 160.09 19.5119 159.836 19.7092C159.583 19.9064 159.387 20.1881 159.251 20.5543C159.118 20.9206 159.051 21.3572 159.051 21.8643ZM167.034 26.5007V17.228H169.986V26.5007H167.034ZM168.513 16.1474C168.098 16.1474 167.742 16.0105 167.444 15.7369C167.146 15.4592 166.998 15.1251 166.998 14.7347C166.998 14.3484 167.146 14.0183 167.444 13.7447C167.742 13.467 168.098 13.3281 168.513 13.3281C168.931 13.3281 169.288 13.467 169.581 13.7447C169.879 14.0183 170.028 14.3484 170.028 14.7347C170.028 15.1251 169.879 15.4592 169.581 15.7369C169.288 16.0105 168.931 16.1474 168.513 16.1474ZM176.187 30.1712C175.306 30.1712 174.551 30.0484 173.923 29.8029C173.296 29.5574 172.803 29.2213 172.444 28.7947C172.086 28.3681 171.871 27.8852 171.798 27.3459L174.594 27.1889C174.646 27.3781 174.742 27.5431 174.883 27.6839C175.028 27.8248 175.215 27.9335 175.445 28.0099C175.678 28.0864 175.952 28.1246 176.266 28.1246C176.761 28.1246 177.169 28.0039 177.491 27.7624C177.817 27.525 177.98 27.1084 177.98 26.5128V24.8828H177.878C177.761 25.1685 177.584 25.4241 177.346 25.6495C177.109 25.8749 176.813 26.052 176.459 26.1807C176.109 26.3095 175.706 26.3739 175.252 26.3739C174.575 26.3739 173.956 26.217 173.392 25.903C172.833 25.5851 172.384 25.0941 172.046 24.43C171.712 23.7619 171.545 22.9027 171.545 21.8523C171.545 20.7696 171.718 19.8782 172.064 19.1779C172.41 18.4736 172.863 17.9524 173.422 17.6143C173.986 17.2763 174.592 17.1072 175.239 17.1072C175.726 17.1072 176.143 17.1918 176.489 17.3608C176.839 17.5258 177.127 17.7391 177.352 18.0007C177.578 18.2623 177.749 18.534 177.866 18.8157H177.95V17.228H180.89V26.5369C180.89 27.3217 180.693 27.9838 180.298 28.5231C179.904 29.0624 179.353 29.4709 178.644 29.7486C177.936 30.0303 177.117 30.1712 176.187 30.1712ZM176.278 24.2248C176.636 24.2248 176.942 24.1302 177.195 23.941C177.449 23.7519 177.644 23.4802 177.781 23.1261C177.918 22.7719 177.986 22.3473 177.986 21.8523C177.986 21.3492 177.918 20.9165 177.781 20.5543C177.648 20.1881 177.453 19.9064 177.195 19.7092C176.942 19.5119 176.636 19.4133 176.278 19.4133C175.912 19.4133 175.602 19.514 175.348 19.7152C175.095 19.9164 174.901 20.2002 174.769 20.5664C174.64 20.9286 174.575 21.3572 174.575 21.8523C174.575 22.3473 174.642 22.7719 174.775 23.1261C174.907 23.4802 175.099 23.7519 175.348 23.941C175.602 24.1302 175.912 24.2248 176.278 24.2248ZM187.101 26.6758C186.127 26.6758 185.289 26.4765 184.589 26.0781C183.893 25.6756 183.356 25.1162 182.977 24.3998C182.603 23.6794 182.416 22.8443 182.416 21.8945C182.416 20.9407 182.603 20.1056 182.977 19.3892C183.356 18.6688 183.893 18.1094 184.589 17.7109C185.289 17.3085 186.127 17.1072 187.101 17.1072C188.074 17.1072 188.91 17.3085 189.606 17.7109C190.306 18.1094 190.843 18.6688 191.218 19.3892C191.596 20.1056 191.785 20.9407 191.785 21.8945C191.785 22.8443 191.596 23.6794 191.218 24.3998C190.843 25.1162 190.306 25.6756 189.606 26.0781C188.91 26.4765 188.074 26.6758 187.101 26.6758ZM187.119 24.4481C187.473 24.4481 187.773 24.3395 188.018 24.1221C188.264 23.9048 188.451 23.603 188.58 23.2166C188.712 22.8302 188.779 22.3835 188.779 21.8764C188.779 21.3613 188.712 20.9105 188.58 20.5241C188.451 20.1378 188.264 19.8359 188.018 19.6186C187.773 19.4013 187.473 19.2926 187.119 19.2926C186.752 19.2926 186.443 19.4013 186.189 19.6186C185.939 19.8359 185.748 20.1378 185.615 20.5241C185.487 20.9105 185.422 21.3613 185.422 21.8764C185.422 22.3835 185.487 22.8302 185.615 23.2166C185.748 23.603 185.939 23.9048 186.189 24.1221C186.443 24.3395 186.752 24.4481 187.119 24.4481ZM198.531 17.228V19.4013H192.682V17.228H198.531ZM193.907 15.0064H196.859V23.5849C196.859 23.766 196.887 23.9129 196.944 24.0256C197.004 24.1342 197.091 24.2127 197.203 24.261C197.316 24.3053 197.451 24.3274 197.608 24.3274C197.72 24.3274 197.839 24.3173 197.964 24.2972C198.093 24.2731 198.189 24.2529 198.254 24.2368L198.7 26.3679C198.56 26.4081 198.36 26.4584 198.103 26.5188C197.849 26.5792 197.545 26.6174 197.191 26.6335C196.499 26.6657 195.905 26.5852 195.41 26.392C194.919 26.1948 194.543 25.889 194.281 25.4744C194.024 25.0599 193.899 24.5387 193.907 23.9109V15.0064ZM200.237 14.1371H203.938L207.077 21.7919H207.222L210.361 14.1371H214.061V26.5007H211.152V18.9062H211.049L208.079 26.4222H206.219L203.249 18.864H203.147V26.5007H200.237V14.1371ZM227.148 18.6165H224.13C224.089 18.3066 224.007 18.0269 223.882 17.7773C223.757 17.5278 223.592 17.3145 223.387 17.1374C223.182 16.9603 222.938 16.8255 222.657 16.7329C222.379 16.6364 222.071 16.5881 221.733 16.5881C221.133 16.5881 220.616 16.735 220.181 17.0288C219.751 17.3226 219.419 17.7471 219.185 18.3025C218.956 18.8579 218.841 19.5301 218.841 20.3189C218.841 21.1399 218.958 21.8281 219.191 22.3835C219.429 22.9349 219.761 23.3514 220.187 23.6332C220.618 23.9109 221.127 24.0497 221.715 24.0497C222.045 24.0497 222.345 24.0074 222.614 23.9229C222.888 23.8384 223.127 23.7157 223.333 23.5547C223.542 23.3897 223.713 23.1904 223.846 22.957C223.983 22.7196 224.077 22.4519 224.13 22.1541L227.148 22.1722C227.096 22.7196 226.937 23.2589 226.671 23.7901C226.409 24.3214 226.049 24.8063 225.59 25.245C225.132 25.6797 224.572 26.0258 223.912 26.2834C223.256 26.5409 222.504 26.6697 221.654 26.6697C220.536 26.6697 219.533 26.4242 218.648 25.9332C217.767 25.4382 217.07 24.7178 216.559 23.772C216.048 22.8262 215.793 21.6752 215.793 20.3189C215.793 18.9586 216.052 17.8055 216.571 16.8597C217.09 15.9139 217.793 15.1955 218.678 14.7045C219.564 14.2135 220.556 13.968 221.654 13.968C222.403 13.968 223.095 14.0727 223.731 14.282C224.367 14.4872 224.926 14.7891 225.409 15.1875C225.892 15.5819 226.285 16.0669 226.587 16.6424C226.888 17.2179 227.076 17.8759 227.148 18.6165Z" fill="url(#paint2_linear_1_56)"/>
</g>
<rect x="1.07143" y="1.07143" width="233.858" height="37.8585" rx="6.92857" stroke="white" stroke-opacity="0.15" stroke-width="2.14286"/>
<defs>
<filter id="filter0_d_1_56" x="2.39972" y="0.39972" width="39.202" height="39.202" filterUnits="userSpaceOnUse" color-interpolation-filters="sRGB">
<feFlood flood-opacity="0" result="BackgroundImageFix"/>
<feColorMatrix in="SourceAlpha" type="matrix" values="0 0 0 0 0 0 0 0 0 0 0 0 0 0 0 0 0 0 127 0" result="hardAlpha"/>
<feOffset/>
<feGaussianBlur stdDeviation="2.80014"/>
<feComposite in2="hardAlpha" operator="out"/>
<feColorMatrix type="matrix" values="0 0 0 0 0 0 0 0 0 0 0 0 0 0 0 0 0 0 0.25 0"/>
<feBlend mode="normal" in2="BackgroundImageFix" result="effect1_dropShadow_1_56"/>
<feBlend mode="normal" in="SourceGraphic" in2="effect1_dropShadow_1_56" result="shape"/>
</filter>
<filter id="filter1_d_1_56" x="36.2871" y="3.78642" width="197.429" height="32.4286" filterUnits="userSpaceOnUse" color-interpolation-filters="sRGB">
<feFlood flood-opacity="0" result="BackgroundImageFix"/>
<feColorMatrix in="SourceAlpha" type="matrix" values="0 0 0 0 0 0 0 0 0 0 0 0 0 0 0 0 0 0 127 0" result="hardAlpha"/>
<feOffset/>
<feGaussianBlur stdDeviation="2.85714"/>
<feComposite in2="hardAlpha" operator="out"/>
<feColorMatrix type="matrix" values="0 0 0 0 0 0 0 0 0 0 0 0 0 0 0 0 0 0 0.25 0"/>
<feBlend mode="normal" in2="BackgroundImageFix" result="effect1_dropShadow_1_56"/>
<feBlend mode="normal" in="SourceGraphic" in2="effect1_dropShadow_1_56" result="shape"/>
</filter>
<linearGradient id="paint0_linear_1_56" x1="118.001" y1="0" x2="118.001" y2="40.0014" gradientUnits="userSpaceOnUse">
<stop stop-color="#342A1D"/>
<stop offset="1" stop-color="#1C1610"/>
</linearGradient>
<linearGradient id="paint1_linear_1_56" x1="22" y1="8" x2="22" y2="32" gradientUnits="userSpaceOnUse">
<stop stop-color="#CEA260"/>
<stop offset="1" stop-color="#81562E"/>
</linearGradient>
<linearGradient id="paint2_linear_1_56" x1="186.001" y1="9.5007" x2="186.001" y2="30.5007" gradientUnits="userSpaceOnUse">
<stop stop-color="#E9C48D"/>
<stop offset="1" stop-color="#A1825D"/>
</linearGradient>
</defs>
</svg>
