<svg width="300" height="40" viewBox="0 0 300 40" fill="none" xmlns="http://www.w3.org/2000/svg">
<rect width="300" height="40" rx="8" fill="url(#paint0_linear_1_56)"/>
<rect x="1.07143" y="1.07143" width="297.857" height="37.8571" rx="6.92857" stroke="white" stroke-opacity="0.15" stroke-width="2.14286"/>
<path d="M27.8672 27.9007L28.7737 29.261L22.4538 32.4215L8 25.1928V10.7402L14.3198 7.57967L20.5008 16.8523L29.679 10.739L36 7.57967V25.6467L29.6802 28.8072L27.8672 27.9007ZM30.2273 11.7692V27.231L34.8345 24.9268V9.465L30.2273 11.7692ZM13.922 9.08233L9.701 11.1917L22.8517 30.9177L27.0727 28.8072L13.922 9.08233Z" fill="white"/>
<g filter="url(#filter0_d_1_56)">
<path d="M43.3583 26.5V14.1364H47.886C48.7634 14.1364 49.4898 14.2812 50.0653 14.571C50.6409 14.8568 51.0715 15.2451 51.3572 15.7361C51.643 16.2231 51.7859 16.7725 51.7859 17.3842C51.7859 17.8994 51.6913 18.334 51.5021 18.6882C51.313 19.0383 51.0594 19.3201 50.7415 19.5334C50.4275 19.7427 50.0814 19.8956 49.7031 19.9922V20.1129C50.1136 20.133 50.5141 20.2659 50.9045 20.5114C51.2989 20.7528 51.6249 21.0969 51.8824 21.5437C52.14 21.9904 52.2688 22.5337 52.2688 23.1736C52.2688 23.8055 52.1199 24.373 51.8221 24.8761C51.5283 25.3751 51.0735 25.7715 50.4577 26.0653C49.842 26.3551 49.0552 26.5 48.0973 26.5H43.3583ZM45.2237 24.9002H47.9162C48.8096 24.9002 49.4496 24.7271 49.8359 24.381C50.2223 24.0349 50.4155 23.6023 50.4155 23.0831C50.4155 22.6927 50.3169 22.3345 50.1197 22.0085C49.9225 21.6825 49.6407 21.4229 49.2745 21.2298C48.9123 21.0366 48.4816 20.94 47.9826 20.94H45.2237V24.9002ZM45.2237 19.4851H47.723C48.1416 19.4851 48.5179 19.4046 48.8519 19.2436C49.19 19.0826 49.4576 18.8572 49.6548 18.5675C49.8561 18.2737 49.9567 17.9276 49.9567 17.5291C49.9567 17.018 49.7776 16.5894 49.4194 16.2433C49.0612 15.8971 48.5118 15.7241 47.7713 15.7241H45.2237V19.4851ZM60.2104 22.6545V17.2273H62.0215V26.5H60.2466V24.8942H60.15C59.9367 25.3892 59.5946 25.8017 59.1237 26.1317C58.6569 26.4577 58.0753 26.6207 57.3791 26.6207C56.7834 26.6207 56.2562 26.4899 55.7974 26.2283C55.3426 25.9627 54.9844 25.5703 54.7228 25.0511C54.4652 24.532 54.3365 23.89 54.3365 23.1254V17.2273H56.1415V22.908C56.1415 23.5399 56.3166 24.043 56.6667 24.4173C57.0169 24.7915 57.4716 24.9787 58.0311 24.9787C58.3691 24.9787 58.7052 24.8942 59.0392 24.7251C59.3773 24.5561 59.657 24.3005 59.8784 23.9584C60.1037 23.6164 60.2144 23.1817 60.2104 22.6545ZM64.4468 26.5V17.2273H66.2518V26.5H64.4468ZM65.3584 15.7965C65.0445 15.7965 64.7748 15.6919 64.5494 15.4826C64.3281 15.2693 64.2174 15.0157 64.2174 14.7219C64.2174 14.4241 64.3281 14.1706 64.5494 13.9613C64.7748 13.748 65.0445 13.6413 65.3584 13.6413C65.6723 13.6413 65.9399 13.748 66.1613 13.9613C66.3867 14.1706 66.4994 14.4241 66.4994 14.7219C66.4994 15.0157 66.3867 15.2693 66.1613 15.4826C65.9399 15.6919 65.6723 15.7965 65.3584 15.7965ZM70.4852 14.1364V26.5H68.6802V14.1364H70.4852ZM77.2421 17.2273V18.6761H72.1771V17.2273H77.2421ZM73.5354 15.0057H75.3404V23.7773C75.3404 24.1275 75.3928 24.3911 75.4974 24.5682C75.602 24.7412 75.7369 24.86 75.9019 24.9244C76.0709 24.9847 76.254 25.0149 76.4512 25.0149C76.5961 25.0149 76.7229 25.0048 76.8316 24.9847C76.9402 24.9646 77.0248 24.9485 77.0851 24.9364L77.4111 26.4276C77.3065 26.4678 77.1576 26.508 76.9644 26.5483C76.7712 26.5926 76.5297 26.6167 76.24 26.6207C75.765 26.6288 75.3223 26.5443 74.9118 26.3672C74.5013 26.1901 74.1693 25.9164 73.9157 25.5462C73.6622 25.1759 73.5354 24.7111 73.5354 24.1516V15.0057ZM85.7481 26.5L83.0194 17.2273H84.8848L86.7019 24.0369H86.7925L88.6157 17.2273H90.4811L92.2921 24.0067H92.3827L94.1877 17.2273H96.0532L93.3305 26.5H91.4892L89.6057 19.805H89.4669L87.5833 26.5H85.7481ZM97.7661 26.5V17.2273H99.5712V26.5H97.7661ZM98.6777 15.7965C98.3638 15.7965 98.0941 15.6919 97.8688 15.4826C97.6474 15.2693 97.5367 15.0157 97.5367 14.7219C97.5367 14.4241 97.6474 14.1706 97.8688 13.9613C98.0941 13.748 98.3638 13.6413 98.6777 13.6413C98.9916 13.6413 99.2593 13.748 99.4806 13.9613C99.706 14.1706 99.8187 14.4241 99.8187 14.7219C99.8187 15.0157 99.706 15.2693 99.4806 15.4826C99.2593 15.6919 98.9916 15.7965 98.6777 15.7965ZM106.328 17.2273V18.6761H101.263V17.2273H106.328ZM102.621 15.0057H104.426V23.7773C104.426 24.1275 104.479 24.3911 104.583 24.5682C104.688 24.7412 104.823 24.86 104.988 24.9244C105.157 24.9847 105.34 25.0149 105.537 25.0149C105.682 25.0149 105.809 25.0048 105.917 24.9847C106.026 24.9646 106.111 24.9485 106.171 24.9364L106.497 26.4276C106.392 26.4678 106.243 26.508 106.05 26.5483C105.857 26.5926 105.616 26.6167 105.326 26.6207C104.851 26.6288 104.408 26.5443 103.998 26.3672C103.587 26.1901 103.255 25.9164 103.002 25.5462C102.748 25.1759 102.621 24.7111 102.621 24.1516V15.0057ZM110.329 20.9943V26.5H108.524V14.1364H110.305V18.7365H110.42C110.637 18.2374 110.969 17.841 111.416 17.5472C111.862 17.2534 112.446 17.1065 113.166 17.1065C113.802 17.1065 114.358 17.2373 114.833 17.4989C115.311 17.7605 115.682 18.1509 115.943 18.6701C116.209 19.1852 116.342 19.8292 116.342 20.6019V26.5H114.537V20.8192C114.537 20.1391 114.362 19.6119 114.012 19.2376C113.661 18.8593 113.174 18.6701 112.551 18.6701C112.124 18.6701 111.742 18.7607 111.404 18.9418C111.07 19.1229 110.806 19.3885 110.613 19.7386C110.424 20.0848 110.329 20.5033 110.329 20.9943Z" fill="#E8E8E8"/>
<path d="M122.936 14.1364H126.636L129.776 21.7912H129.92L133.06 14.1364H136.76V26.5H133.85V18.9055H133.748L130.778 26.4215H128.918L125.948 18.8633H125.845V26.5H122.936V14.1364ZM141.238 26.657C140.647 26.657 140.121 26.5584 139.663 26.3611C139.208 26.1599 138.848 25.8581 138.582 25.4556C138.32 25.0491 138.19 24.54 138.19 23.9283C138.19 23.4131 138.28 22.9785 138.461 22.6243C138.642 22.2701 138.892 21.9824 139.21 21.761C139.528 21.5397 139.894 21.3726 140.308 21.2599C140.723 21.1432 141.166 21.0647 141.637 21.0245C142.164 20.9762 142.588 20.9259 142.91 20.8736C143.232 20.8172 143.466 20.7388 143.611 20.6381C143.76 20.5335 143.834 20.3866 143.834 20.1974V20.1673C143.834 19.8574 143.727 19.6179 143.514 19.4489C143.301 19.2798 143.013 19.1953 142.651 19.1953C142.26 19.1953 141.946 19.2798 141.709 19.4489C141.472 19.6179 141.321 19.8513 141.256 20.1491L138.534 20.0526C138.614 19.4891 138.821 18.986 139.155 18.5433C139.493 18.0966 139.956 17.7464 140.544 17.4929C141.136 17.2353 141.846 17.1065 142.675 17.1065C143.267 17.1065 143.812 17.177 144.311 17.3178C144.81 17.4547 145.245 17.6559 145.615 17.9215C145.985 18.1831 146.271 18.5051 146.472 18.8874C146.677 19.2698 146.78 19.7064 146.78 20.1974V26.5H144.003V25.2081H143.931C143.766 25.522 143.554 25.7876 143.297 26.005C143.043 26.2223 142.743 26.3853 142.397 26.494C142.055 26.6026 141.669 26.657 141.238 26.657ZM142.15 24.7251C142.468 24.7251 142.753 24.6607 143.007 24.532C143.265 24.4032 143.47 24.2261 143.623 24.0007C143.776 23.7713 143.852 23.5057 143.852 23.2038V22.3224C143.768 22.3667 143.665 22.407 143.544 22.4432C143.428 22.4794 143.299 22.5136 143.158 22.5458C143.017 22.578 142.872 22.6062 142.723 22.6303C142.574 22.6545 142.431 22.6766 142.295 22.6967C142.017 22.741 141.779 22.8094 141.582 22.902C141.389 22.9946 141.24 23.1153 141.136 23.2642C141.035 23.4091 140.985 23.5821 140.985 23.7834C140.985 24.0892 141.093 24.3227 141.311 24.4837C141.532 24.6446 141.812 24.7251 142.15 24.7251ZM153.819 17.2273V19.4006H147.969V17.2273H153.819ZM149.195 15.0057H152.147V23.5842C152.147 23.7653 152.175 23.9122 152.231 24.0249C152.292 24.1335 152.378 24.212 152.491 24.2603C152.604 24.3046 152.739 24.3267 152.895 24.3267C153.008 24.3267 153.127 24.3166 153.252 24.2965C153.38 24.2724 153.477 24.2522 153.541 24.2361L153.988 26.3672C153.847 26.4074 153.648 26.4577 153.39 26.5181C153.137 26.5785 152.833 26.6167 152.479 26.6328C151.787 26.665 151.193 26.5845 150.698 26.3913C150.207 26.1941 149.831 25.8883 149.569 25.4737C149.312 25.0592 149.187 24.538 149.195 23.9102V15.0057ZM159.56 26.6751C158.59 26.6751 157.753 26.4839 157.049 26.1016C156.349 25.7152 155.809 25.1658 155.431 24.4535C155.057 23.7371 154.87 22.8859 154.87 21.8999C154.87 20.942 155.059 20.1049 155.437 19.3885C155.815 18.6681 156.349 18.1087 157.037 17.7102C157.725 17.3078 158.536 17.1065 159.47 17.1065C160.13 17.1065 160.733 17.2092 161.281 17.4144C161.828 17.6197 162.301 17.9235 162.699 18.326C163.098 18.7285 163.408 19.2255 163.629 19.8171C163.85 20.4047 163.961 21.0788 163.961 21.8395V22.576H155.902V20.8615H161.214C161.21 20.5476 161.136 20.2679 160.991 20.0224C160.846 19.7769 160.647 19.5857 160.393 19.4489C160.144 19.308 159.856 19.2376 159.53 19.2376C159.2 19.2376 158.904 19.312 158.643 19.4609C158.381 19.6058 158.174 19.805 158.021 20.0586C157.868 20.3081 157.787 20.5919 157.779 20.9098V22.6545C157.779 23.0328 157.854 23.3648 158.003 23.6506C158.152 23.9323 158.363 24.1516 158.637 24.3086C158.91 24.4655 159.236 24.544 159.615 24.544C159.876 24.544 160.114 24.5078 160.327 24.4354C160.54 24.3629 160.723 24.2563 160.876 24.1154C161.029 23.9745 161.144 23.8015 161.22 23.5962L163.931 23.6747C163.818 24.2824 163.571 24.8117 163.188 25.2624C162.81 25.7092 162.313 26.0573 161.697 26.3068C161.082 26.5523 160.369 26.6751 159.56 26.6751ZM165.469 26.5V17.2273H168.336V18.9176H168.433C168.602 18.3059 168.878 17.8511 169.26 17.5533C169.642 17.2514 170.087 17.1005 170.594 17.1005C170.731 17.1005 170.872 17.1106 171.017 17.1307C171.162 17.1468 171.297 17.1729 171.421 17.2092V19.7749C171.28 19.7266 171.095 19.6883 170.866 19.6602C170.641 19.632 170.439 19.6179 170.262 19.6179C169.912 19.6179 169.596 19.6964 169.314 19.8533C169.037 20.0063 168.817 20.2216 168.656 20.4993C168.499 20.773 168.421 21.0949 168.421 21.4652V26.5H165.469ZM172.624 26.5V17.2273H175.576V26.5H172.624ZM174.103 16.1467C173.689 16.1467 173.332 16.0098 173.035 15.7361C172.737 15.4584 172.588 15.1244 172.588 14.734C172.588 14.3477 172.737 14.0176 173.035 13.744C173.332 13.4663 173.689 13.3274 174.103 13.3274C174.522 13.3274 174.878 13.4663 175.172 13.744C175.47 14.0176 175.618 14.3477 175.618 14.734C175.618 15.1244 175.47 15.4584 175.172 15.7361C174.878 16.0098 174.522 16.1467 174.103 16.1467ZM180.069 26.657C179.478 26.657 178.952 26.5584 178.494 26.3611C178.039 26.1599 177.679 25.8581 177.413 25.4556C177.151 25.0491 177.021 24.54 177.021 23.9283C177.021 23.4131 177.111 22.9785 177.292 22.6243C177.473 22.2701 177.723 21.9824 178.041 21.761C178.359 21.5397 178.725 21.3726 179.14 21.2599C179.554 21.1432 179.997 21.0647 180.468 21.0245C180.995 20.9762 181.419 20.9259 181.741 20.8736C182.063 20.8172 182.297 20.7388 182.442 20.6381C182.591 20.5335 182.665 20.3866 182.665 20.1974V20.1673C182.665 19.8574 182.558 19.6179 182.345 19.4489C182.132 19.2798 181.844 19.1953 181.482 19.1953C181.091 19.1953 180.778 19.2798 180.54 19.4489C180.303 19.6179 180.152 19.8513 180.087 20.1491L177.365 20.0526C177.445 19.4891 177.652 18.986 177.986 18.5433C178.325 18.0966 178.787 17.7464 179.375 17.4929C179.967 17.2353 180.677 17.1065 181.506 17.1065C182.098 17.1065 182.643 17.177 183.142 17.3178C183.641 17.4547 184.076 17.6559 184.446 17.9215C184.816 18.1831 185.102 18.5051 185.303 18.8874C185.508 19.2698 185.611 19.7064 185.611 20.1974V26.5H182.834V25.2081H182.762C182.597 25.522 182.385 25.7876 182.128 26.005C181.874 26.2223 181.574 26.3853 181.228 26.494C180.886 26.6026 180.5 26.657 180.069 26.657ZM180.981 24.7251C181.299 24.7251 181.584 24.6607 181.838 24.532C182.096 24.4032 182.301 24.2261 182.454 24.0007C182.607 23.7713 182.683 23.5057 182.683 23.2038V22.3224C182.599 22.3667 182.496 22.407 182.375 22.4432C182.259 22.4794 182.13 22.5136 181.989 22.5458C181.848 22.578 181.703 22.6062 181.554 22.6303C181.405 22.6545 181.262 22.6766 181.126 22.6967C180.848 22.741 180.611 22.8094 180.413 22.902C180.22 22.9946 180.071 23.1153 179.967 23.2642C179.866 23.4091 179.816 23.5821 179.816 23.7834C179.816 24.0892 179.924 24.3227 180.142 24.4837C180.363 24.6446 180.643 24.7251 180.981 24.7251ZM190.368 14.1364V26.5H187.416V14.1364H190.368ZM201.17 17.2273V19.4006H195.205V17.2273H201.17ZM196.449 26.5V16.7564C196.449 16.04 196.584 15.4464 196.853 14.9755C197.123 14.5006 197.497 14.1464 197.976 13.913C198.455 13.6755 199.009 13.5568 199.636 13.5568C200.047 13.5568 200.433 13.589 200.795 13.6534C201.162 13.7138 201.433 13.7681 201.61 13.8164L201.14 15.9776C201.031 15.9414 200.898 15.9112 200.741 15.8871C200.588 15.8629 200.443 15.8508 200.306 15.8508C199.96 15.8508 199.723 15.9273 199.594 16.0803C199.465 16.2332 199.401 16.4425 199.401 16.7081V26.5H196.449ZM206.62 26.6751C205.646 26.6751 204.809 26.4758 204.108 26.0774C203.412 25.6749 202.875 25.1155 202.496 24.3991C202.122 23.6787 201.935 22.8436 201.935 21.8938C201.935 20.94 202.122 20.1049 202.496 19.3885C202.875 18.6681 203.412 18.1087 204.108 17.7102C204.809 17.3078 205.646 17.1065 206.62 17.1065C207.594 17.1065 208.429 17.3078 209.125 17.7102C209.825 18.1087 210.363 18.6681 210.737 19.3885C211.115 20.1049 211.304 20.94 211.304 21.8938C211.304 22.8436 211.115 23.6787 210.737 24.3991C210.363 25.1155 209.825 25.6749 209.125 26.0774C208.429 26.4758 207.594 26.6751 206.62 26.6751ZM206.638 24.4474C206.992 24.4474 207.292 24.3388 207.537 24.1214C207.783 23.9041 207.97 23.6023 208.099 23.2159C208.231 22.8295 208.298 22.3828 208.298 21.8757C208.298 21.3606 208.231 20.9098 208.099 20.5234C207.97 20.1371 207.783 19.8352 207.537 19.6179C207.292 19.4006 206.992 19.2919 206.638 19.2919C206.271 19.2919 205.962 19.4006 205.708 19.6179C205.459 19.8352 205.267 20.1371 205.135 20.5234C205.006 20.9098 204.941 21.3606 204.941 21.8757C204.941 22.3828 205.006 22.8295 205.135 23.2159C205.267 23.6023 205.459 23.9041 205.708 24.1214C205.962 24.3388 206.271 24.4474 206.638 24.4474ZM212.817 26.5V17.2273H215.684V18.9176H215.781C215.95 18.3059 216.225 17.8511 216.608 17.5533C216.99 17.2514 217.435 17.1005 217.942 17.1005C218.079 17.1005 218.22 17.1106 218.364 17.1307C218.509 17.1468 218.644 17.1729 218.769 17.2092V19.7749C218.628 19.7266 218.443 19.6883 218.214 19.6602C217.988 19.632 217.787 19.6179 217.61 19.6179C217.26 19.6179 216.944 19.6964 216.662 19.8533C216.384 20.0063 216.165 20.2216 216.004 20.4993C215.847 20.773 215.769 21.0949 215.769 21.4652V26.5H212.817ZM223.624 14.1364H227.325L230.464 21.7912H230.609L233.748 14.1364H237.449V26.5H234.539V18.9055H234.436L231.466 26.4215H229.607L226.637 18.8633H226.534V26.5H223.624V14.1364ZM241.975 24.0671L241.987 20.5476H242.397L245.005 17.2273H248.35L244.474 21.9844H243.695L241.975 24.0671ZM239.313 26.5V14.1364H242.265V26.5H239.313ZM245.072 26.5L242.645 22.6484L244.589 20.5536L248.483 26.5H245.072ZM253.976 26.5H249.406V14.1364H253.97C255.23 14.1364 256.315 14.3839 257.224 14.8789C258.138 15.3699 258.842 16.0782 259.337 17.0039C259.832 17.9255 260.08 19.0283 260.08 20.3121C260.08 21.6 259.832 22.7068 259.337 23.6325C258.846 24.5581 258.144 25.2685 257.23 25.7635C256.317 26.2545 255.232 26.5 253.976 26.5ZM252.395 23.9524H253.862C254.554 23.9524 255.139 23.8357 255.618 23.6023C256.101 23.3648 256.466 22.9805 256.711 22.4492C256.961 21.9139 257.085 21.2016 257.085 20.3121C257.085 19.4227 256.961 18.7144 256.711 18.1871C256.462 17.6559 256.093 17.2736 255.606 17.0401C255.123 16.8027 254.528 16.6839 253.819 16.6839H252.395V23.9524ZM266.153 26.6751C265.179 26.6751 264.342 26.4758 263.641 26.0774C262.945 25.6749 262.408 25.1155 262.03 24.3991C261.655 23.6787 261.468 22.8436 261.468 21.8938C261.468 20.94 261.655 20.1049 262.03 19.3885C262.408 18.6681 262.945 18.1087 263.641 17.7102C264.342 17.3078 265.179 17.1065 266.153 17.1065C267.127 17.1065 267.962 17.3078 268.658 17.7102C269.358 18.1087 269.896 18.6681 270.27 19.3885C270.648 20.1049 270.837 20.94 270.837 21.8938C270.837 22.8436 270.648 23.6787 270.27 24.3991C269.896 25.1155 269.358 25.6749 268.658 26.0774C267.962 26.4758 267.127 26.6751 266.153 26.6751ZM266.171 24.4474C266.525 24.4474 266.825 24.3388 267.07 24.1214C267.316 23.9041 267.503 23.6023 267.632 23.2159C267.765 22.8295 267.831 22.3828 267.831 21.8757C267.831 21.3606 267.765 20.9098 267.632 20.5234C267.503 20.1371 267.316 19.8352 267.07 19.6179C266.825 19.4006 266.525 19.2919 266.171 19.2919C265.805 19.2919 265.495 19.4006 265.241 19.6179C264.992 19.8352 264.801 20.1371 264.668 20.5234C264.539 20.9098 264.475 21.3606 264.475 21.8757C264.475 22.3828 264.539 22.8295 264.668 23.2159C264.801 23.6023 264.992 23.9041 265.241 24.1214C265.495 24.3388 265.805 24.4474 266.171 24.4474ZM276.678 26.6751C275.7 26.6751 274.861 26.4738 274.161 26.0714C273.465 25.6689 272.929 25.1095 272.555 24.3931C272.181 23.6727 271.994 22.8396 271.994 21.8938C271.994 20.944 272.181 20.1109 272.555 19.3945C272.933 18.6741 273.471 18.1127 274.167 17.7102C274.867 17.3078 275.702 17.1065 276.672 17.1065C277.529 17.1065 278.276 17.2615 278.912 17.5714C279.552 17.8813 280.051 18.32 280.409 18.8874C280.771 19.4509 280.962 20.1129 280.983 20.8736H278.224C278.167 20.3987 278.006 20.0264 277.741 19.7567C277.479 19.4871 277.137 19.3523 276.714 19.3523C276.372 19.3523 276.072 19.4489 275.815 19.642C275.557 19.8312 275.356 20.1129 275.211 20.4872C275.07 20.8575 275 21.3163 275 21.8636C275 22.411 275.07 22.8738 275.211 23.2521C275.356 23.6264 275.557 23.9102 275.815 24.1033C276.072 24.2925 276.372 24.3871 276.714 24.3871C276.988 24.3871 277.23 24.3287 277.439 24.212C277.652 24.0953 277.827 23.9242 277.964 23.6989C278.101 23.4695 278.187 23.1918 278.224 22.8658H280.983C280.954 23.6304 280.763 24.2985 280.409 24.87C280.059 25.4415 279.566 25.8862 278.93 26.2042C278.298 26.5181 277.548 26.6751 276.678 26.6751ZM290.589 20.0586L287.878 20.131C287.85 19.9379 287.774 19.7668 287.649 19.6179C287.524 19.465 287.361 19.3462 287.16 19.2617C286.963 19.1732 286.733 19.1289 286.472 19.1289C286.13 19.1289 285.838 19.1973 285.596 19.3342C285.359 19.471 285.242 19.6561 285.246 19.8896C285.242 20.0707 285.315 20.2276 285.463 20.3604C285.616 20.4932 285.888 20.5999 286.278 20.6804L288.065 21.0185C288.991 21.1955 289.679 21.4893 290.13 21.8999C290.585 22.3104 290.814 22.8537 290.818 23.5298C290.814 24.1657 290.625 24.7191 290.251 25.19C289.88 25.6609 289.373 26.0271 288.729 26.2887C288.085 26.5463 287.349 26.6751 286.52 26.6751C285.196 26.6751 284.151 26.4034 283.387 25.8601C282.626 25.3127 282.191 24.5803 282.083 23.6626L284.999 23.5902C285.063 23.9283 285.23 24.1858 285.5 24.3629C285.769 24.54 286.113 24.6285 286.532 24.6285C286.91 24.6285 287.218 24.5581 287.456 24.4173C287.693 24.2764 287.814 24.0892 287.818 23.8558C287.814 23.6465 287.721 23.4795 287.54 23.3548C287.359 23.226 287.075 23.1254 286.689 23.0529L285.071 22.745C284.141 22.576 283.449 22.2641 282.994 21.8093C282.54 21.3505 282.314 20.7669 282.318 20.0586C282.314 19.4388 282.479 18.9096 282.813 18.4709C283.147 18.0282 283.622 17.6901 284.238 17.4567C284.854 17.2232 285.58 17.1065 286.417 17.1065C287.673 17.1065 288.663 17.3701 289.387 17.8974C290.112 18.4206 290.512 19.141 290.589 20.0586Z" fill="url(#paint1_linear_1_56)"/>
</g>
<defs>
<filter id="filter0_d_1_56" x="36.2857" y="3.78571" width="261.428" height="32.4286" filterUnits="userSpaceOnUse" color-interpolation-filters="sRGB">
<feFlood flood-opacity="0" result="BackgroundImageFix"/>
<feColorMatrix in="SourceAlpha" type="matrix" values="0 0 0 0 0 0 0 0 0 0 0 0 0 0 0 0 0 0 127 0" result="hardAlpha"/>
<feOffset/>
<feGaussianBlur stdDeviation="2.85714"/>
<feComposite in2="hardAlpha" operator="out"/>
<feColorMatrix type="matrix" values="0 0 0 0 0 0 0 0 0 0 0 0 0 0 0 0 0 0 0.25 0"/>
<feBlend mode="normal" in2="BackgroundImageFix" result="effect1_dropShadow_1_56"/>
<feBlend mode="normal" in="SourceGraphic" in2="effect1_dropShadow_1_56" result="shape"/>
</filter>
<linearGradient id="paint0_linear_1_56" x1="150" y1="0" x2="150" y2="40" gradientUnits="userSpaceOnUse">
<stop stop-color="#526CFE"/>
<stop offset="1" stop-color="#1C2559"/>
</linearGradient>
<linearGradient id="paint1_linear_1_56" x1="207" y1="9.5" x2="207" y2="30.5" gradientUnits="userSpaceOnUse">
<stop stop-color="white"/>
<stop offset="1" stop-color="#CACACA"/>
</linearGradient>
</defs>
</svg>
