<svg width="242" height="56" viewBox="0 0 242 56" fill="none" xmlns="http://www.w3.org/2000/svg">
<rect width="242" height="56" rx="8" fill="url(#paint0_linear_1_50)"/>
<rect x="1.05" y="1.05" width="239.9" height="53.9" rx="6.95" stroke="white" stroke-opacity="0.15" stroke-width="2.1"/>
<path d="M40.3817 39.2867L41.6767 41.23L32.6483 45.745L12 35.4183V14.7717L21.0283 10.2567L29.8583 23.5033L42.97 14.77L52 10.2567V36.0667L42.9717 40.5817L40.3817 39.2867ZM43.7533 16.2417V38.33L50.335 35.0383V12.95L43.7533 16.2417ZM20.46 12.4033L14.43 15.4167L33.2167 43.5967L39.2467 40.5817L20.46 12.4033Z" fill="white"/>
<g filter="url(#filter0_d_1_50)">
<path d="M61.2784 24.5V12.8636H65.5398C66.3655 12.8636 67.0492 13 67.5909 13.2727C68.1326 13.5417 68.5379 13.9072 68.8068 14.3693C69.0757 14.8277 69.2102 15.3447 69.2102 15.9205C69.2102 16.4053 69.1212 16.8144 68.9432 17.1477C68.7651 17.4773 68.5265 17.7424 68.2273 17.9432C67.9318 18.1402 67.6061 18.2841 67.25 18.375V18.4886C67.6364 18.5076 68.0132 18.6326 68.3807 18.8636C68.7519 19.0909 69.0587 19.4148 69.3011 19.8352C69.5436 20.2557 69.6648 20.767 69.6648 21.3693C69.6648 21.964 69.5246 22.4981 69.2443 22.9716C68.9678 23.4413 68.5398 23.8144 67.9602 24.0909C67.3807 24.3636 66.6401 24.5 65.7386 24.5H61.2784ZM63.0341 22.9943H65.5682C66.4091 22.9943 67.0114 22.8314 67.375 22.5057C67.7386 22.1799 67.9204 21.7727 67.9204 21.2841C67.9204 20.9167 67.8276 20.5795 67.642 20.2727C67.4564 19.9659 67.1913 19.7216 66.8466 19.5398C66.5057 19.358 66.1004 19.267 65.6307 19.267H63.0341V22.9943ZM63.0341 17.8977H65.3864C65.7803 17.8977 66.1345 17.822 66.4489 17.6705C66.767 17.5189 67.0189 17.3068 67.2045 17.0341C67.3939 16.7576 67.4886 16.4318 67.4886 16.0568C67.4886 15.5758 67.3201 15.1723 66.9829 14.8466C66.6458 14.5208 66.1288 14.358 65.4318 14.358H63.0341V17.8977ZM77.1392 20.8807V15.7727H78.8437V24.5H77.1733V22.9886H77.0824C76.8816 23.4545 76.5596 23.8428 76.1165 24.1534C75.6771 24.4602 75.1297 24.6136 74.4744 24.6136C73.9138 24.6136 73.4176 24.4905 72.9858 24.2443C72.5578 23.9943 72.2206 23.625 71.9744 23.1364C71.732 22.6477 71.6108 22.0436 71.6108 21.3239V15.7727H73.3096V21.1193C73.3096 21.714 73.4744 22.1875 73.804 22.5398C74.1335 22.892 74.5615 23.0682 75.0881 23.0682C75.4062 23.0682 75.7225 22.9886 76.0369 22.8295C76.3551 22.6705 76.6184 22.4299 76.8267 22.108C77.0388 21.786 77.143 21.3769 77.1392 20.8807ZM81.1264 24.5V15.7727H82.8253V24.5H81.1264ZM81.9844 14.4261C81.6889 14.4261 81.4351 14.3277 81.223 14.1307C81.0147 13.9299 80.9105 13.6913 80.9105 13.4148C80.9105 13.1345 81.0147 12.8958 81.223 12.6989C81.4351 12.4981 81.6889 12.3977 81.9844 12.3977C82.2798 12.3977 82.5317 12.4981 82.74 12.6989C82.9522 12.8958 83.0582 13.1345 83.0582 13.4148C83.0582 13.6913 82.9522 13.9299 82.74 14.1307C82.5317 14.3277 82.2798 14.4261 81.9844 14.4261ZM86.8096 12.8636V24.5H85.1108V12.8636H86.8096ZM93.169 15.7727V17.1364H88.402V15.7727H93.169ZM89.6804 13.6818H91.3792V21.9375C91.3792 22.267 91.4285 22.5152 91.527 22.6818C91.6255 22.8447 91.7524 22.9564 91.9077 23.017C92.0667 23.0739 92.2391 23.1023 92.4247 23.1023C92.5611 23.1023 92.6804 23.0928 92.7827 23.0739C92.8849 23.0549 92.9645 23.0398 93.0213 23.0284L93.3281 24.4318C93.2296 24.4697 93.0895 24.5076 92.9077 24.5455C92.7258 24.5871 92.4986 24.6098 92.2258 24.6136C91.7789 24.6212 91.3622 24.5417 90.9758 24.375C90.5895 24.2083 90.277 23.9508 90.0383 23.6023C89.7997 23.2538 89.6804 22.8163 89.6804 22.2898V13.6818ZM101.175 24.5L98.6065 15.7727H100.362L102.072 22.1818H102.158L103.874 15.7727H105.629L107.334 22.1534H107.419L109.118 15.7727H110.874L108.311 24.5H106.578L104.805 18.1989H104.675L102.902 24.5H101.175ZM112.486 24.5V15.7727H114.185V24.5H112.486ZM113.344 14.4261C113.048 14.4261 112.794 14.3277 112.582 14.1307C112.374 13.9299 112.27 13.6913 112.27 13.4148C112.27 13.1345 112.374 12.8958 112.582 12.6989C112.794 12.4981 113.048 12.3977 113.344 12.3977C113.639 12.3977 113.891 12.4981 114.099 12.6989C114.312 12.8958 114.418 13.1345 114.418 13.4148C114.418 13.6913 114.312 13.9299 114.099 14.1307C113.891 14.3277 113.639 14.4261 113.344 14.4261ZM120.544 15.7727V17.1364H115.777V15.7727H120.544ZM117.055 13.6818H118.754V21.9375C118.754 22.267 118.803 22.5152 118.902 22.6818C119 22.8447 119.127 22.9564 119.283 23.017C119.442 23.0739 119.614 23.1023 119.8 23.1023C119.936 23.1023 120.055 23.0928 120.158 23.0739C120.26 23.0549 120.339 23.0398 120.396 23.0284L120.703 24.4318C120.605 24.4697 120.464 24.5076 120.283 24.5455C120.101 24.5871 119.874 24.6098 119.601 24.6136C119.154 24.6212 118.737 24.5417 118.351 24.375C117.964 24.2083 117.652 23.9508 117.413 23.6023C117.175 23.2538 117.055 22.8163 117.055 22.2898V13.6818ZM124.31 19.3182V24.5H122.611V12.8636H124.287V17.1932H124.395C124.599 16.7235 124.912 16.3504 125.332 16.0739C125.753 15.7973 126.302 15.6591 126.98 15.6591C127.579 15.6591 128.101 15.7822 128.548 16.0284C128.999 16.2746 129.348 16.642 129.594 17.1307C129.844 17.6155 129.969 18.2216 129.969 18.9489V24.5H128.27V19.1534C128.27 18.5133 128.105 18.017 127.776 17.6648C127.446 17.3087 126.988 17.1307 126.401 17.1307C125.999 17.1307 125.639 17.2159 125.321 17.3864C125.007 17.5568 124.758 17.8068 124.577 18.1364C124.399 18.4621 124.31 18.8561 124.31 19.3182Z" fill="#E8E8E8"/>
<path d="M60.9357 31.1364H64.6364L67.7756 38.7912H67.9204L71.0596 31.1364H74.7603V43.5H71.8505V35.9055H71.7479L68.7777 43.4215H66.9183L63.9481 35.8633H63.8455V43.5H60.9357V31.1364ZM79.2382 43.657C78.6466 43.657 78.1213 43.5584 77.6625 43.3611C77.2078 43.1599 76.8476 42.8581 76.5819 42.4556C76.3203 42.0491 76.1895 41.54 76.1895 40.9283C76.1895 40.4131 76.2801 39.9785 76.4612 39.6243C76.6423 39.2701 76.8918 38.9824 77.2098 38.761C77.5277 38.5396 77.894 38.3726 78.3085 38.2599C78.723 38.1432 79.1657 38.0647 79.6366 38.0245C80.1638 37.9762 80.5884 37.9259 80.9104 37.8736C81.2324 37.8172 81.4658 37.7388 81.6107 37.6381C81.7596 37.5335 81.8341 37.3866 81.8341 37.1974V37.1673C81.8341 36.8574 81.7274 36.6179 81.5141 36.4489C81.3008 36.2798 81.013 36.1953 80.6508 36.1953C80.2604 36.1953 79.9465 36.2798 79.7091 36.4489C79.4716 36.6179 79.3207 36.8513 79.2563 37.1491L76.5336 37.0526C76.6141 36.4891 76.8214 35.986 77.1554 35.5433C77.4935 35.0966 77.9563 34.7464 78.5439 34.4929C79.1356 34.2353 79.8459 34.1065 80.675 34.1065C81.2666 34.1065 81.8119 34.177 82.311 34.3178C82.81 34.4547 83.2447 34.6559 83.615 34.9215C83.9852 35.1831 84.271 35.5051 84.4722 35.8874C84.6775 36.2698 84.7801 36.7064 84.7801 37.1974V43.5H82.0031V42.2081H81.9306C81.7656 42.522 81.5543 42.7876 81.2968 43.005C81.0432 43.2223 80.7434 43.3853 80.3973 43.494C80.0552 43.6026 79.6688 43.657 79.2382 43.657ZM80.1498 41.7251C80.4677 41.7251 80.7534 41.6607 81.007 41.532C81.2646 41.4032 81.4698 41.2261 81.6228 41.0007C81.7757 40.7713 81.8522 40.5057 81.8522 40.2038V39.3224C81.7677 39.3667 81.665 39.407 81.5443 39.4432C81.4276 39.4794 81.2988 39.5136 81.1579 39.5458C81.0171 39.578 80.8722 39.6062 80.7233 39.6303C80.5744 39.6545 80.4315 39.6766 80.2946 39.6967C80.0169 39.741 79.7795 39.8094 79.5823 39.902C79.3891 39.9945 79.2402 40.1153 79.1356 40.2642C79.0349 40.4091 78.9846 40.5821 78.9846 40.7834C78.9846 41.0892 79.0933 41.3227 79.3106 41.4837C79.532 41.6446 79.8117 41.7251 80.1498 41.7251ZM91.8191 34.2273V36.4006H85.9694V34.2273H91.8191ZM87.1949 32.0057H90.1469V40.5842C90.1469 40.7653 90.1751 40.9122 90.2314 41.0249C90.2918 41.1335 90.3783 41.212 90.491 41.2603C90.6037 41.3046 90.7385 41.3267 90.8955 41.3267C91.0082 41.3267 91.1269 41.3166 91.2517 41.2965C91.3805 41.2724 91.477 41.2522 91.5414 41.2361L91.9882 43.3672C91.8473 43.4074 91.6481 43.4577 91.3905 43.5181C91.137 43.5785 90.8331 43.6167 90.4789 43.6328C89.7867 43.665 89.1931 43.5845 88.698 43.3913C88.207 43.1941 87.8307 42.8883 87.5691 42.4737C87.3116 42.0592 87.1868 41.538 87.1949 40.9102V32.0057ZM97.5603 43.6751C96.5903 43.6751 95.7532 43.4839 95.0489 43.1016C94.3486 42.7152 93.8093 42.1658 93.431 41.4535C93.0567 40.7371 92.8696 39.8859 92.8696 38.8999C92.8696 37.942 93.0587 37.1049 93.437 36.3885C93.8154 35.6681 94.3486 35.1087 95.0368 34.7102C95.725 34.3078 96.536 34.1065 97.4697 34.1065C98.1297 34.1065 98.7334 34.2092 99.2808 34.4144C99.8281 34.6197 100.301 34.9235 100.699 35.326C101.098 35.7285 101.408 36.2255 101.629 36.8171C101.851 37.4047 101.961 38.0788 101.961 38.8395V39.576H93.9019V37.8615H99.2144C99.2104 37.5476 99.1359 37.2679 98.991 37.0224C98.8461 36.7769 98.6469 36.5857 98.3934 36.4489C98.1438 36.308 97.8561 36.2376 97.5301 36.2376C97.2001 36.2376 96.9042 36.312 96.6426 36.4609C96.381 36.6058 96.1738 36.805 96.0208 37.0586C95.8679 37.3081 95.7874 37.5919 95.7794 37.9098V39.6545C95.7794 40.0328 95.8538 40.3648 96.0027 40.6506C96.1516 40.9323 96.3629 41.1516 96.6366 41.3086C96.9103 41.4655 97.2363 41.544 97.6146 41.544C97.8762 41.544 98.1136 41.5078 98.327 41.4354C98.5403 41.3629 98.7234 41.2563 98.8763 41.1154C99.0292 40.9745 99.1439 40.8015 99.2204 40.5962L101.931 40.6747C101.818 41.2824 101.571 41.8117 101.188 42.2624C100.81 42.7092 100.313 43.0573 99.6973 43.3068C99.0816 43.5523 98.3692 43.6751 97.5603 43.6751ZM103.469 43.5V34.2273H106.336V35.9176H106.433C106.602 35.3059 106.878 34.8511 107.26 34.5533C107.642 34.2514 108.087 34.1005 108.594 34.1005C108.731 34.1005 108.872 34.1106 109.017 34.1307C109.162 34.1468 109.297 34.1729 109.421 34.2092V36.7749C109.28 36.7266 109.095 36.6883 108.866 36.6602C108.641 36.632 108.439 36.6179 108.262 36.6179C107.912 36.6179 107.596 36.6964 107.314 36.8533C107.037 37.0063 106.817 37.2216 106.656 37.4993C106.499 37.773 106.421 38.0949 106.421 38.4652V43.5H103.469ZM110.624 43.5V34.2273H113.576V43.5H110.624ZM112.103 33.1467C111.689 33.1467 111.333 33.0098 111.035 32.7361C110.737 32.4584 110.588 32.1244 110.588 31.734C110.588 31.3477 110.737 31.0176 111.035 30.744C111.333 30.4663 111.689 30.3274 112.103 30.3274C112.522 30.3274 112.878 30.4663 113.172 30.744C113.47 31.0176 113.618 31.3477 113.618 31.734C113.618 32.1244 113.47 32.4584 113.172 32.7361C112.878 33.0098 112.522 33.1467 112.103 33.1467ZM118.069 43.657C117.478 43.657 116.952 43.5584 116.494 43.3611C116.039 43.1599 115.679 42.8581 115.413 42.4556C115.151 42.0491 115.021 41.54 115.021 40.9283C115.021 40.4131 115.111 39.9785 115.292 39.6243C115.473 39.2701 115.723 38.9824 116.041 38.761C116.359 38.5396 116.725 38.3726 117.14 38.2599C117.554 38.1432 117.997 38.0647 118.468 38.0245C118.995 37.9762 119.419 37.9259 119.741 37.8736C120.063 37.8172 120.297 37.7388 120.442 37.6381C120.591 37.5335 120.665 37.3866 120.665 37.1974V37.1673C120.665 36.8574 120.558 36.6179 120.345 36.4489C120.132 36.2798 119.844 36.1953 119.482 36.1953C119.091 36.1953 118.778 36.2798 118.54 36.4489C118.303 36.6179 118.152 36.8513 118.087 37.1491L115.365 37.0526C115.445 36.4891 115.652 35.986 115.986 35.5433C116.325 35.0966 116.787 34.7464 117.375 34.4929C117.967 34.2353 118.677 34.1065 119.506 34.1065C120.098 34.1065 120.643 34.177 121.142 34.3178C121.641 34.4547 122.076 34.6559 122.446 34.9215C122.816 35.1831 123.102 35.5051 123.303 35.8874C123.508 36.2698 123.611 36.7064 123.611 37.1974V43.5H120.834V42.2081H120.762C120.597 42.522 120.385 42.7876 120.128 43.005C119.874 43.2223 119.574 43.3853 119.228 43.494C118.886 43.6026 118.5 43.657 118.069 43.657ZM118.981 41.7251C119.299 41.7251 119.584 41.6607 119.838 41.532C120.096 41.4032 120.301 41.2261 120.454 41.0007C120.607 40.7713 120.683 40.5057 120.683 40.2038V39.3224C120.599 39.3667 120.496 39.407 120.375 39.4432C120.259 39.4794 120.13 39.5136 119.989 39.5458C119.848 39.578 119.703 39.6062 119.554 39.6303C119.405 39.6545 119.263 39.6766 119.126 39.6967C118.848 39.741 118.611 39.8094 118.413 39.902C118.22 39.9945 118.071 40.1153 117.967 40.2642C117.866 40.4091 117.816 40.5821 117.816 40.7834C117.816 41.0892 117.924 41.3227 118.142 41.4837C118.363 41.6446 118.643 41.7251 118.981 41.7251ZM128.368 31.1364V43.5H125.416V31.1364H128.368ZM139.17 34.2273V36.4006H133.205V34.2273H139.17ZM134.449 43.5V33.7564C134.449 33.04 134.584 32.4464 134.853 31.9755C135.123 31.5006 135.497 31.1464 135.976 30.913C136.455 30.6755 137.009 30.5568 137.636 30.5568C138.047 30.5568 138.433 30.589 138.796 30.6534C139.162 30.7138 139.433 30.7681 139.61 30.8164L139.14 32.9776C139.031 32.9414 138.898 32.9112 138.741 32.8871C138.588 32.8629 138.443 32.8508 138.307 32.8508C137.96 32.8508 137.723 32.9273 137.594 33.0803C137.465 33.2332 137.401 33.4425 137.401 33.7081V43.5H134.449ZM144.62 43.6751C143.646 43.6751 142.809 43.4758 142.108 43.0774C141.412 42.6749 140.875 42.1155 140.496 41.3991C140.122 40.6787 139.935 39.8436 139.935 38.8938C139.935 37.94 140.122 37.1049 140.496 36.3885C140.875 35.6681 141.412 35.1087 142.108 34.7102C142.809 34.3078 143.646 34.1065 144.62 34.1065C145.594 34.1065 146.429 34.3078 147.125 34.7102C147.825 35.1087 148.363 35.6681 148.737 36.3885C149.115 37.1049 149.304 37.94 149.304 38.8938C149.304 39.8436 149.115 40.6787 148.737 41.3991C148.363 42.1155 147.825 42.6749 147.125 43.0774C146.429 43.4758 145.594 43.6751 144.62 43.6751ZM144.638 41.4474C144.992 41.4474 145.292 41.3388 145.537 41.1214C145.783 40.9041 145.97 40.6023 146.099 40.2159C146.232 39.8295 146.298 39.3828 146.298 38.8757C146.298 38.3606 146.232 37.9098 146.099 37.5234C145.97 37.1371 145.783 36.8352 145.537 36.6179C145.292 36.4006 144.992 36.2919 144.638 36.2919C144.272 36.2919 143.962 36.4006 143.708 36.6179C143.459 36.8352 143.267 37.1371 143.135 37.5234C143.006 37.9098 142.941 38.3606 142.941 38.8757C142.941 39.3828 143.006 39.8295 143.135 40.2159C143.267 40.6023 143.459 40.9041 143.708 41.1214C143.962 41.3388 144.272 41.4474 144.638 41.4474ZM150.817 43.5V34.2273H153.684V35.9176H153.781C153.95 35.3059 154.225 34.8511 154.608 34.5533C154.99 34.2514 155.435 34.1005 155.942 34.1005C156.079 34.1005 156.22 34.1106 156.364 34.1307C156.509 34.1468 156.644 34.1729 156.769 34.2092V36.7749C156.628 36.7266 156.443 36.6883 156.214 36.6602C155.988 36.632 155.787 36.6179 155.61 36.6179C155.26 36.6179 154.944 36.6964 154.662 36.8533C154.384 37.0063 154.165 37.2216 154.004 37.4993C153.847 37.773 153.769 38.0949 153.769 38.4652V43.5H150.817ZM161.624 31.1364H165.325L168.464 38.7912H168.609L171.748 31.1364H175.449V43.5H172.539V35.9055H172.436L169.466 43.4215H167.607L164.637 35.8633H164.534V43.5H161.624V31.1364ZM179.975 41.0671L179.987 37.5476H180.398L183.005 34.2273H186.35L182.474 38.9844H181.695L179.975 41.0671ZM177.313 43.5V31.1364H180.265V43.5H177.313ZM183.072 43.5L180.645 39.6484L182.589 37.5536L186.483 43.5H183.072ZM191.976 43.5H187.406V31.1364H191.97C193.23 31.1364 194.315 31.3839 195.224 31.8789C196.138 32.3699 196.842 33.0782 197.337 34.0039C197.832 34.9255 198.08 36.0283 198.08 37.3121C198.08 38.6 197.832 39.7068 197.337 40.6325C196.846 41.5581 196.144 42.2685 195.23 42.7635C194.317 43.2545 193.232 43.5 191.976 43.5ZM190.395 40.9524H191.862C192.554 40.9524 193.139 40.8357 193.618 40.6023C194.101 40.3648 194.466 39.9805 194.711 39.4492C194.961 38.9139 195.085 38.2016 195.085 37.3121C195.085 36.4227 194.961 35.7144 194.711 35.1871C194.462 34.6559 194.093 34.2736 193.606 34.0401C193.123 33.8027 192.528 33.6839 191.819 33.6839H190.395V40.9524ZM204.153 43.6751C203.179 43.6751 202.342 43.4758 201.641 43.0774C200.945 42.6749 200.408 42.1155 200.03 41.3991C199.655 40.6787 199.468 39.8436 199.468 38.8938C199.468 37.94 199.655 37.1049 200.03 36.3885C200.408 35.6681 200.945 35.1087 201.641 34.7102C202.342 34.3078 203.179 34.1065 204.153 34.1065C205.127 34.1065 205.962 34.3078 206.658 34.7102C207.358 35.1087 207.896 35.6681 208.27 36.3885C208.648 37.1049 208.837 37.94 208.837 38.8938C208.837 39.8436 208.648 40.6787 208.27 41.3991C207.896 42.1155 207.358 42.6749 206.658 43.0774C205.962 43.4758 205.127 43.6751 204.153 43.6751ZM204.171 41.4474C204.525 41.4474 204.825 41.3388 205.07 41.1214C205.316 40.9041 205.503 40.6023 205.632 40.2159C205.765 39.8295 205.831 39.3828 205.831 38.8757C205.831 38.3606 205.765 37.9098 205.632 37.5234C205.503 37.1371 205.316 36.8352 205.07 36.6179C204.825 36.4006 204.525 36.2919 204.171 36.2919C203.805 36.2919 203.495 36.4006 203.241 36.6179C202.992 36.8352 202.801 37.1371 202.668 37.5234C202.539 37.9098 202.475 38.3606 202.475 38.8757C202.475 39.3828 202.539 39.8295 202.668 40.2159C202.801 40.6023 202.992 40.9041 203.241 41.1214C203.495 41.3388 203.805 41.4474 204.171 41.4474ZM214.678 43.6751C213.7 43.6751 212.861 43.4738 212.161 43.0714C211.465 42.6689 210.929 42.1095 210.555 41.3931C210.181 40.6727 209.994 39.8396 209.994 38.8938C209.994 37.944 210.181 37.1109 210.555 36.3945C210.933 35.6741 211.471 35.1127 212.167 34.7102C212.867 34.3078 213.702 34.1065 214.672 34.1065C215.529 34.1065 216.276 34.2615 216.912 34.5714C217.552 34.8813 218.051 35.32 218.409 35.8874C218.771 36.4509 218.962 37.1129 218.983 37.8736H216.224C216.167 37.3987 216.006 37.0264 215.741 36.7567C215.479 36.4871 215.137 36.3523 214.714 36.3523C214.372 36.3523 214.073 36.4489 213.815 36.642C213.557 36.8312 213.356 37.1129 213.211 37.4872C213.07 37.8575 213 38.3163 213 38.8636C213 39.411 213.07 39.8738 213.211 40.2521C213.356 40.6264 213.557 40.9102 213.815 41.1033C214.073 41.2925 214.372 41.3871 214.714 41.3871C214.988 41.3871 215.23 41.3287 215.439 41.212C215.652 41.0953 215.827 40.9242 215.964 40.6989C216.101 40.4695 216.187 40.1918 216.224 39.8658H218.983C218.954 40.6304 218.763 41.2985 218.409 41.87C218.059 42.4415 217.566 42.8862 216.93 43.2042C216.298 43.5181 215.548 43.6751 214.678 43.6751ZM228.589 37.0586L225.878 37.131C225.85 36.9379 225.774 36.7668 225.649 36.6179C225.524 36.465 225.361 36.3462 225.16 36.2617C224.963 36.1732 224.733 36.1289 224.472 36.1289C224.13 36.1289 223.838 36.1973 223.596 36.3342C223.359 36.471 223.242 36.6561 223.246 36.8896C223.242 37.0707 223.315 37.2276 223.463 37.3604C223.616 37.4932 223.888 37.5999 224.278 37.6804L226.065 38.0185C226.991 38.1955 227.679 38.4893 228.13 38.8999C228.585 39.3104 228.814 39.8537 228.818 40.5298C228.814 41.1657 228.625 41.7191 228.251 42.19C227.88 42.6609 227.373 43.0271 226.729 43.2887C226.085 43.5463 225.349 43.6751 224.52 43.6751C223.196 43.6751 222.151 43.4034 221.387 42.8601C220.626 42.3127 220.191 41.5802 220.083 40.6626L222.999 40.5902C223.063 40.9283 223.23 41.1858 223.5 41.3629C223.769 41.54 224.113 41.6285 224.532 41.6285C224.91 41.6285 225.218 41.5581 225.456 41.4173C225.693 41.2764 225.814 41.0892 225.818 40.8558C225.814 40.6465 225.721 40.4795 225.54 40.3548C225.359 40.226 225.075 40.1253 224.689 40.0529L223.071 39.745C222.141 39.576 221.449 39.2641 220.994 38.8093C220.54 38.3505 220.314 37.7669 220.318 37.0586C220.314 36.4388 220.479 35.9096 220.813 35.4709C221.147 35.0282 221.622 34.6901 222.238 34.4567C222.854 34.2232 223.58 34.1065 224.417 34.1065C225.673 34.1065 226.663 34.3701 227.387 34.8974C228.112 35.4206 228.512 36.141 228.589 37.0586Z" fill="url(#paint1_linear_1_50)"/>
</g>
<defs>
<filter id="filter0_d_1_50" x="54.4" y="3.9" width="181.2" height="48.2" filterUnits="userSpaceOnUse" color-interpolation-filters="sRGB">
<feFlood flood-opacity="0" result="BackgroundImageFix"/>
<feColorMatrix in="SourceAlpha" type="matrix" values="0 0 0 0 0 0 0 0 0 0 0 0 0 0 0 0 0 0 127 0" result="hardAlpha"/>
<feOffset/>
<feGaussianBlur stdDeviation="2.8"/>
<feComposite in2="hardAlpha" operator="out"/>
<feColorMatrix type="matrix" values="0 0 0 0 0 0 0 0 0 0 0 0 0 0 0 0 0 0 0.25 0"/>
<feBlend mode="normal" in2="BackgroundImageFix" result="effect1_dropShadow_1_50"/>
<feBlend mode="normal" in="SourceGraphic" in2="effect1_dropShadow_1_50" result="shape"/>
</filter>
<linearGradient id="paint0_linear_1_50" x1="121" y1="0" x2="121" y2="56" gradientUnits="userSpaceOnUse">
<stop stop-color="#526CFE"/>
<stop offset="1" stop-color="#1C2559"/>
</linearGradient>
<linearGradient id="paint1_linear_1_50" x1="145" y1="28.5" x2="145" y2="46.5" gradientUnits="userSpaceOnUse">
<stop stop-color="white"/>
<stop offset="1" stop-color="#CACACA"/>
</linearGradient>
</defs>
</svg>
