<svg width="40" height="40" viewBox="0 0 40 40" fill="none" xmlns="http://www.w3.org/2000/svg">
<rect width="40" height="40" rx="8" fill="url(#paint0_linear_1_68)"/>
<g filter="url(#filter0_d_1_68)">
<path fill-rule="evenodd" clip-rule="evenodd" d="M20.525 8.05878C20.2137 8.15815 19.9746 8.33804 19.7036 8.67669C19.6274 8.77187 19.4961 8.80542 19.3254 8.77331C19.1229 8.73521 18.3545 8.68549 16.3431 8.58043C15.7554 8.54969 15.6361 8.56643 15.5307 8.69408C15.2786 8.9991 15.3465 9.98185 15.6344 10.1954C15.7164 10.2563 16.1632 10.2654 16.6029 10.2151C16.8398 10.1879 17.0758 10.1638 17.6177 10.1112C17.7538 10.098 17.9765 10.076 18.1127 10.0625C18.2488 10.0489 18.5327 10.0207 18.7437 9.99989C18.9547 9.97911 19.2646 9.93357 19.4322 9.89865L19.7371 9.83522L19.8282 9.89634C20.0944 10.0749 20.1677 10.2042 20.1298 10.4279C20.0584 10.8483 20.0511 11.0797 20.0613 12.5637C20.0741 14.396 20.1169 14.2339 19.6099 14.2736C19.293 14.2985 19.1697 14.3886 19.1141 14.6362C19.0875 14.7548 19.0936 15.8853 19.1226 16.1938C19.1407 16.3875 18.9886 16.4977 18.6404 16.543C18.2981 16.5875 18.2155 16.7834 18.2888 17.3769C18.3047 17.5059 18.2262 17.6101 18.024 17.7285C17.8403 17.836 17.8017 18.0907 17.946 18.2429C18.1033 18.4087 18.1111 18.4913 17.9865 18.6717C17.857 18.8594 17.8541 18.8888 17.8529 20.0371C17.8517 21.1908 17.8369 21.3794 17.7353 21.5305C17.5884 21.7492 16.8679 22.4134 16.6979 22.4867C16.6462 22.509 16.2073 22.5211 15.0315 22.5328C14.1535 22.5414 13.4046 22.5569 13.3673 22.5673C13.2163 22.6088 13.0768 22.5606 12.9415 22.42C12.753 22.2243 12.7743 22.227 11.48 22.2405C10.2082 22.2537 10.2218 22.2555 10.1913 22.0741C10.157 21.8696 10.1369 21.8036 10.054 21.6237C9.89651 21.2814 9.75756 21.2144 9.31867 21.2694C9.03898 21.3045 8.97576 21.3806 8.90727 21.7654C8.82134 22.2477 8.73187 22.3486 8.4759 22.2521C8.30731 22.1885 8.28177 22.1873 7.61917 22.21C7.57831 22.2114 7.50395 22.2052 7.4539 22.1964C7.4006 22.1869 7.32357 22.1933 7.26824 22.212C7.21623 22.2295 7.09016 22.2463 6.98803 22.2495C6.53106 22.2634 6.4549 22.2869 6.35046 22.4459C6.12009 22.7965 5.92539 24.7569 6.02816 25.6913C6.14526 26.7564 6.29252 27.2612 6.51276 27.3524C6.81517 27.4776 8.12193 27.5354 8.46469 27.4386L8.64197 27.3886L8.72146 27.4451C8.82525 27.5188 8.88116 27.6505 8.9307 27.9382C8.99009 28.2831 9.05156 28.3602 9.30522 28.4079C9.47838 28.4405 9.71294 28.4276 9.81832 28.3798C10.0408 28.2786 10.1651 27.5862 10.0304 27.1981C9.95336 26.976 10.0109 26.9231 10.1122 27.123C10.2544 27.4038 10.4004 27.4319 11.7151 27.432C12.905 27.432 12.8194 27.4527 12.9861 27.125C13.1202 26.8616 13.181 26.813 13.3688 26.8198C13.4462 26.8226 14.0662 26.8344 14.7469 26.8461C16.1048 26.8694 15.9757 26.8541 16.405 27.0431C17.5291 27.5382 18.76 27.817 20.3029 27.9262C21.1512 27.9863 22.3181 27.9605 23.0501 27.8656C24.366 27.695 25.2336 27.4758 26.1313 27.0872C26.7855 26.8039 27.0754 26.954 27.2098 27.6457C27.3149 28.1865 27.2896 28.2662 26.9727 28.3947C26.526 28.5758 26.2492 28.7623 26.1834 28.9264C26.1358 29.0451 26.158 29.1756 26.2861 29.5308C26.3204 29.6258 26.3518 29.7647 26.3559 29.8394C26.3674 30.0513 26.3893 30.1384 26.4644 30.2724C26.5028 30.3409 26.5413 30.452 26.5501 30.5194C26.5705 30.6765 26.6304 30.8622 26.701 30.9875C26.7348 31.0475 26.7628 31.1509 26.7723 31.2506C26.8167 31.7156 27.018 31.8511 27.7771 31.9267C27.8656 31.9355 27.9643 31.9468 27.9966 31.9517C29.539 32.1876 31.6698 31.5435 33.2018 30.3782C33.9163 29.8347 34.0961 29.5771 33.9561 29.2971C33.9331 29.2512 33.9148 29.1563 33.9148 29.0835C33.9148 28.9407 33.8429 28.7201 33.7637 28.6195C33.7362 28.5847 33.7091 28.507 33.7035 28.4471C33.6926 28.3318 33.6156 28.1144 33.5549 28.028C33.535 27.9998 33.5188 27.9404 33.5188 27.8961C33.5188 27.8045 33.4584 27.6367 33.3899 27.5378C33.3643 27.5009 33.3274 27.4171 33.3079 27.3515C33.2066 27.0112 32.6302 26.8055 32.0462 26.9012C31.546 26.9832 31.5119 26.965 31.3673 26.5409C30.9071 25.1914 30.2807 24.1951 29.556 23.6604C29.2809 23.4574 29.178 23.4105 28.1483 23.0186C27.1384 22.6342 26.883 22.5268 26.4204 22.2918C26.1438 22.1514 25.8375 21.985 25.7398 21.9221C24.2447 20.9596 24.4059 21.2117 24.3515 19.7522C24.3148 18.7706 24.307 18.7318 24.1147 18.5776C23.9585 18.4524 23.9357 18.3945 23.9791 18.232C24.0536 17.9527 24.0146 17.8294 23.8069 17.6882C23.6447 17.5778 23.6223 17.5307 23.6475 17.3522C23.7325 16.7501 23.6355 16.534 23.2621 16.4938C23.0363 16.4694 22.9415 16.4392 22.8771 16.3707L22.8188 16.3087L22.8168 15.426C22.8143 14.2537 22.8223 14.2714 22.2828 14.245C21.8972 14.2261 21.8083 14.2043 21.7278 14.1087L21.6641 14.0333L21.6639 12.3747C21.6638 11.411 21.6531 10.6241 21.6385 10.4967C21.6089 10.2392 21.6127 10.2304 21.8422 10.0151C22.0176 9.85052 22.1286 9.7837 22.1962 9.80202C22.5944 9.91026 22.53 9.90514 24.7082 10.0008C26.3799 10.0743 26.3656 10.0759 26.5023 9.80275C26.6813 9.44512 26.5605 8.4776 26.3244 8.37795C26.2435 8.34389 25.9241 8.34526 25.6239 8.38105C25.4021 8.40753 25.3435 8.41403 24.2627 8.53273C22.9202 8.68015 22.8941 8.68333 22.5639 8.74084C22.2408 8.79705 22.2217 8.79077 22.0363 8.56715C21.6401 8.08931 21.0505 7.89094 20.525 8.05878Z" fill="url(#paint1_linear_1_68)"/>
</g>
<rect x="1.05" y="1.05" width="37.9" height="37.9" rx="6.95" stroke="white" stroke-opacity="0.15" stroke-width="2.1"/>
<defs>
<filter id="filter0_d_1_68" x="2" y="2" width="36" height="36" filterUnits="userSpaceOnUse" color-interpolation-filters="sRGB">
<feFlood flood-opacity="0" result="BackgroundImageFix"/>
<feColorMatrix in="SourceAlpha" type="matrix" values="0 0 0 0 0 0 0 0 0 0 0 0 0 0 0 0 0 0 127 0" result="hardAlpha"/>
<feOffset/>
<feGaussianBlur stdDeviation="2"/>
<feComposite in2="hardAlpha" operator="out"/>
<feColorMatrix type="matrix" values="0 0 0 0 0 0 0 0 0 0 0 0 0 0 0 0 0 0 0.25 0"/>
<feBlend mode="normal" in2="BackgroundImageFix" result="effect1_dropShadow_1_68"/>
<feBlend mode="normal" in="SourceGraphic" in2="effect1_dropShadow_1_68" result="shape"/>
</filter>
<linearGradient id="paint0_linear_1_68" x1="20" y1="0" x2="20" y2="40" gradientUnits="userSpaceOnUse">
<stop stop-color="#342A1D"/>
<stop offset="1" stop-color="#1C1610"/>
</linearGradient>
<linearGradient id="paint1_linear_1_68" x1="20" y1="8" x2="20" y2="32" gradientUnits="userSpaceOnUse">
<stop stop-color="#CEA260"/>
<stop offset="1" stop-color="#81562E"/>
</linearGradient>
</defs>
</svg>
