<svg width="56" height="56" viewBox="0 0 56 56" fill="none" xmlns="http://www.w3.org/2000/svg">
<rect width="56" height="56" rx="8.4" fill="url(#paint0_linear_1_62)"/>
<g filter="url(#filter0_d_1_62)">
<path fill-rule="evenodd" clip-rule="evenodd" d="M28.7499 11.084C28.3053 11.2259 27.9637 11.4829 27.5766 11.9667C27.4676 12.1027 27.2801 12.1506 27.0363 12.1047C26.7471 12.0503 25.6493 11.9793 22.7759 11.8292C21.9363 11.7853 21.7659 11.8092 21.6152 11.9915C21.2552 12.4273 21.3522 13.8312 21.7634 14.1363C21.8806 14.2233 22.5188 14.2362 23.1471 14.1644C23.4855 14.1256 23.8225 14.0912 24.5967 14.0159C24.7912 13.9971 25.1093 13.9657 25.3038 13.9464C25.4982 13.927 25.9039 13.8868 26.2053 13.857C26.5067 13.8273 26.9494 13.7622 27.1889 13.7124L27.6244 13.6217L27.7546 13.7091C28.1348 13.9642 28.2396 14.1488 28.1854 14.4685C28.0835 15.0691 28.0729 15.3996 28.0876 17.5195C28.1058 20.1372 28.167 19.9056 27.4427 19.9623C26.99 19.9978 26.8138 20.1265 26.7344 20.4803C26.6964 20.6497 26.7052 22.2646 26.7465 22.7054C26.7725 22.9821 26.5551 23.1395 26.0577 23.2043C25.5687 23.2679 25.4507 23.5477 25.5554 24.3956C25.5781 24.5798 25.466 24.7287 25.1771 24.8979C24.9148 25.0515 24.8596 25.4153 25.0657 25.6327C25.2904 25.8696 25.3015 25.9876 25.1236 26.2453C24.9385 26.5134 24.9344 26.5554 24.9327 28.1958C24.931 29.844 24.9098 30.1134 24.7647 30.3294C24.5549 30.6417 23.5255 31.5905 23.2827 31.6952C23.2088 31.7271 22.5819 31.7444 20.9021 31.7611C19.6478 31.7735 18.578 31.7956 18.5247 31.8104C18.309 31.8697 18.1097 31.8008 17.9165 31.6C17.6472 31.3204 17.6776 31.3242 15.8286 31.3435C14.0118 31.3625 14.0311 31.3651 13.9876 31.1058C13.9385 30.8137 13.9098 30.7194 13.7915 30.4624C13.5664 29.9734 13.3679 29.8777 12.741 29.9563C12.3414 30.0064 12.2511 30.1151 12.1532 30.6649C12.0305 31.3538 11.9027 31.498 11.537 31.3601C11.2962 31.2693 11.2597 31.2675 10.3131 31.3C10.2547 31.302 10.1485 31.2932 10.077 31.2805C10.0009 31.267 9.89081 31.2762 9.81176 31.3028C9.73747 31.3278 9.55737 31.3519 9.41148 31.3564C8.75866 31.3763 8.64986 31.4098 8.50066 31.637C8.17156 32.1379 7.89341 34.9384 8.04023 36.2733C8.20752 37.7948 8.41789 38.516 8.73252 38.6463C9.16453 38.8252 11.0313 38.9077 11.521 38.7695L11.7742 38.698L11.8878 38.7787C12.0361 38.884 12.1159 39.0721 12.1867 39.4831C12.2716 39.9758 12.3594 40.086 12.7217 40.1541C12.9691 40.2007 13.3042 40.1823 13.4547 40.1139C13.7726 39.9694 13.9501 38.9803 13.7577 38.4258C13.6477 38.1085 13.7299 38.033 13.8746 38.3186C14.0777 38.7197 14.2863 38.7599 16.1644 38.76C17.8643 38.76 17.742 38.7896 17.9801 38.3215C18.1717 37.9451 18.2586 37.8757 18.5269 37.8854C18.6374 37.8894 19.5232 37.9064 20.4955 37.9231C22.4354 37.9562 22.251 37.9344 22.8643 38.2045C24.4702 38.9116 26.2286 39.3101 28.4327 39.466C29.6445 39.5518 31.3116 39.515 32.3573 39.3794C34.2371 39.1357 35.4766 38.8226 36.759 38.2674C37.6935 37.8626 38.1077 38.0772 38.2997 39.0653C38.4498 39.8379 38.4137 39.9517 37.9611 40.1353C37.3229 40.394 36.9275 40.6605 36.8335 40.8949C36.7655 41.0645 36.7972 41.2509 36.9802 41.7582C37.0292 41.894 37.074 42.0925 37.0798 42.1991C37.0963 42.5019 37.1275 42.6262 37.2349 42.8178C37.2896 42.9156 37.3447 43.0742 37.3573 43.1705C37.3865 43.3949 37.472 43.6603 37.5729 43.8393C37.6211 43.925 37.6612 44.0727 37.6747 44.2151C37.7382 44.8794 38.0257 45.073 39.1101 45.181C39.2365 45.1936 39.3776 45.2097 39.4236 45.2167C41.6272 45.5537 44.6711 44.6335 46.8597 42.9688C47.8804 42.1924 48.1373 41.8244 47.9372 41.4244C47.9045 41.3588 47.8782 41.2233 47.8782 41.1192C47.8782 40.9152 47.7756 40.6001 47.6625 40.4565C47.6232 40.4067 47.5844 40.2958 47.5764 40.2101C47.5609 40.0455 47.4509 39.7349 47.3642 39.6115C47.3357 39.5711 47.3126 39.4862 47.3126 39.423C47.3126 39.2921 47.2263 39.0525 47.1284 38.9111C47.0919 38.8585 47.0392 38.7387 47.0113 38.6451C46.8665 38.1589 46.0431 37.865 45.2089 38.0017C44.4943 38.1188 44.4455 38.0928 44.239 37.487C43.5816 35.5591 42.6867 34.1358 41.6515 33.372C41.2584 33.082 41.1114 33.015 39.6404 32.4551C38.1978 31.906 37.8328 31.7525 37.172 31.4169C36.7768 31.2163 36.3393 30.9786 36.1997 30.8887C34.0638 29.5137 34.2942 29.8738 34.2164 27.7888C34.164 26.3865 34.1529 26.3312 33.8781 26.1109C33.6549 25.932 33.6225 25.8493 33.6844 25.6172C33.7909 25.2182 33.7351 25.042 33.4385 24.8402C33.2067 24.6826 33.1748 24.6153 33.2107 24.3603C33.3321 23.5001 33.1936 23.1915 32.6602 23.134C32.3375 23.0991 32.2022 23.0559 32.1101 22.9581L32.0268 22.8696L32.024 21.6085C32.0204 19.9339 32.0319 19.9591 31.2612 19.9214C30.7102 19.8944 30.5833 19.8633 30.4682 19.7268L30.3773 19.619L30.377 17.2495C30.3768 15.8729 30.3616 14.7488 30.3407 14.5667C30.2985 14.1989 30.3039 14.1862 30.6317 13.8787C30.8823 13.6436 31.0409 13.5481 31.1375 13.5743C31.7063 13.7289 31.6142 13.7216 34.726 13.8583C37.1141 13.9633 37.0937 13.9655 37.289 13.5754C37.5448 13.0645 37.3721 11.6823 37.0348 11.5399C36.9193 11.4913 36.463 11.4932 36.0341 11.5444C35.7173 11.5822 35.6336 11.5915 34.0896 11.761C32.1717 11.9716 32.1345 11.9762 31.6627 12.0583C31.2011 12.1386 31.1739 12.1297 30.9089 11.8102C30.343 11.1276 29.5007 10.8442 28.7499 11.084Z" fill="url(#paint1_linear_1_62)"/>
</g>
<rect x="1.05" y="1.05" width="53.9" height="53.9" rx="7.35" stroke="white" stroke-opacity="0.15" stroke-width="2.1"/>
<defs>
<filter id="filter0_d_1_62" x="2.28571" y="2.28571" width="51.4286" height="51.4286" filterUnits="userSpaceOnUse" color-interpolation-filters="sRGB">
<feFlood flood-opacity="0" result="BackgroundImageFix"/>
<feColorMatrix in="SourceAlpha" type="matrix" values="0 0 0 0 0 0 0 0 0 0 0 0 0 0 0 0 0 0 127 0" result="hardAlpha"/>
<feOffset/>
<feGaussianBlur stdDeviation="2.85714"/>
<feComposite in2="hardAlpha" operator="out"/>
<feColorMatrix type="matrix" values="0 0 0 0 0 0 0 0 0 0 0 0 0 0 0 0 0 0 0.25 0"/>
<feBlend mode="normal" in2="BackgroundImageFix" result="effect1_dropShadow_1_62"/>
<feBlend mode="normal" in="SourceGraphic" in2="effect1_dropShadow_1_62" result="shape"/>
</filter>
<linearGradient id="paint0_linear_1_62" x1="28" y1="0" x2="28" y2="56" gradientUnits="userSpaceOnUse">
<stop stop-color="#342A1D"/>
<stop offset="1" stop-color="#1C1610"/>
</linearGradient>
<linearGradient id="paint1_linear_1_62" x1="28" y1="11" x2="28" y2="45.2857" gradientUnits="userSpaceOnUse">
<stop stop-color="#CEA260"/>
<stop offset="1" stop-color="#81562E"/>
</linearGradient>
</defs>
</svg>
